<?xml version="1.0" standalone="no"?>
<!DOCTYPE svg PUBLIC "-//W3C//DTD SVG 20010904//EN"
 "http://www.w3.org/TR/2001/REC-SVG-20010904/DTD/svg10.dtd">
<svg version="1.0" xmlns="http://www.w3.org/2000/svg"
 width="170.000000pt" height="170.000000pt" viewBox="0 0 170.000000 170.000000"
 preserveAspectRatio="xMidYMid meet">
<metadata>
Created by potrace 1.14, written by Peter Selinger 2001-2017
</metadata>
<g transform="translate(0.000000,170.000000) scale(0.100000,-0.100000)"
fill="#000000" stroke="none">
<path d="M1067 1213 c-13 -12 -6 -48 13 -73 26 -34 25 -40 -9 -40 -20 0 -40
11 -64 35 -36 36 -77 47 -77 20 0 -8 12 -26 27 -40 35 -32 22 -33 -20 -1 -41
30 -60 36 -78 26 -18 -12 16 -50 45 -50 19 1 18 3 -6 16 -30 16 -35 24 -15 24
21 -1 48 -27 42 -42 -5 -12 -20 -14 -71 -10 -66 4 -94 -6 -94 -34 0 -7 9 -18
20 -24 18 -10 43 -3 102 28 4 2 5 -10 2 -27 -5 -23 -2 -32 10 -37 25 -9 46 14
46 51 0 35 13 45 56 45 21 0 23 -3 14 -19 -14 -28 -12 -57 5 -71 25 -20 45 5
45 56 l0 44 42 0 42 0 -26 -27 c-34 -37 -43 -67 -23 -83 22 -18 40 1 54 55 12
47 23 53 79 47 42 -5 40 -13 -8 -35 -42 -19 -61 -54 -39 -68 26 -16 39 -9 65
34 15 23 27 43 28 44 7 9 58 8 86 -3 l35 -12 -42 -1 c-57 -1 -90 -34 -60 -59
17 -14 52 -5 99 26 31 20 42 22 65 14 l28 -10 -27 -1 c-53 -2 -98 -36 -82 -62
9 -16 40 -10 78 16 42 28 60 30 96 10 14 -8 29 -14 34 -15 15 0 -7 19 -45 39
-33 18 -34 21 -31 71 4 59 -15 90 -54 90 -38 0 -42 -42 -10 -85 30 -40 21 -44
-38 -17 -35 16 -40 22 -43 56 -5 63 -52 98 -83 61 -17 -20 -5 -46 32 -72 l33
-23 -32 0 c-49 0 -62 9 -88 60 -26 51 -49 67 -71 49 -26 -21 -15 -46 29 -68
l42 -21 -50 3 c-50 2 -50 2 -51 37 -1 51 -13 80 -33 80 -10 0 -21 -3 -24 -7z
m41 -46 c2 -15 -1 -27 -6 -27 -12 0 -33 46 -24 54 12 13 27 -1 30 -27z m84 -4
c21 -19 23 -33 5 -33 -18 0 -49 34 -40 43 9 10 14 9 35 -10z m149 -20 c13 -36
-2 -48 -29 -23 -23 22 -27 32 -15 43 14 15 34 6 44 -20z m-346 -13 c23 -26 4
-26 -26 0 -18 15 -20 19 -8 20 9 0 24 -9 34 -20z m491 -12 c11 -25 7 -58 -6
-58 -12 0 -50 62 -44 72 10 16 41 7 50 -14z m-648 -73 c-15 -8 -34 -12 -42 -9
-30 12 -16 24 27 24 l42 -1 -27 -14z m193 -38 c-8 -8 -11 -4 -11 14 0 33 14
47 18 19 2 -12 -1 -27 -7 -33z m102 28 c-7 -32 -33 -56 -33 -30 0 15 26 55 35
55 1 0 0 -11 -2 -25z m-210 -15 c-3 -11 -9 -20 -14 -20 -10 0 -12 33 -3 43 12
12 22 -3 17 -23z m317 -1 c-13 -22 -37 -35 -48 -24 -7 7 34 45 49 45 6 0 5 -9
-1 -21z m150 4 c0 -2 -16 -11 -35 -19 -40 -16 -69 -9 -42 11 15 11 77 17 77 8z
m56 -48 c-11 -8 -29 -15 -40 -15 -21 1 -21 1 -2 15 11 8 29 15 40 15 21 -1 21
-1 2 -15z"/>
<path d="M580 1130 c-15 -11 -21 -23 -17 -34 4 -9 2 -16 -4 -16 -7 0 -9 -10
-4 -27 8 -33 24 -55 35 -48 4 3 10 -2 14 -10 6 -17 68 -14 74 4 2 6 10 11 17
11 7 0 18 15 24 32 9 26 9 35 -2 43 -8 5 -12 15 -10 21 12 35 -87 54 -127 24z"/>
<path d="M175 1120 c-3 -5 1 -10 10 -10 9 0 13 5 10 10 -3 6 -8 10 -10 10 -2
0 -7 -4 -10 -10z"/>
<path d="M280 1101 c-20 -38 13 -71 51 -51 22 12 23 23 9 51 -14 25 -46 25
-60 0z"/>
<path d="M226 1103 c-11 -11 -6 -23 9 -23 8 0 15 4 15 9 0 13 -16 22 -24 14z"/>
<path d="M402 1088 c-22 -29 -23 -57 -2 -75 42 -36 98 -7 85 44 -3 15 -12 31
-18 35 -19 12 -54 9 -65 -4z"/>
<path d="M884 935 c-26 -26 -31 -54 -12 -73 18 -18 28 -14 28 11 0 13 7 32 15
43 20 26 19 11 -7 -67 -21 -68 -20 -99 5 -99 9 0 16 15 20 39 8 65 38 132 56
129 21 -4 21 -23 0 -82 -30 -81 -82 -119 -117 -84 -15 15 -16 50 -1 65 7 7 8
13 0 17 -18 12 -49 -29 -44 -58 16 -84 146 -69 191 21 32 63 36 109 12 133
-22 22 -36 25 -45 10 -5 -8 -11 -8 -20 0 -26 21 -56 20 -81 -5z"/>
<path d="M113 930 c-35 -21 -73 -93 -73 -138 0 -39 30 -72 65 -72 25 0 65 31
65 50 0 18 18 10 23 -10 6 -22 42 -28 51 -7 5 10 7 10 12 0 15 -33 72 5 89 58
4 10 11 19 16 19 6 0 6 -7 -1 -19 -24 -47 1 -88 40 -63 13 8 21 7 29 -1 9 -9
16 -9 30 0 13 8 21 9 29 1 8 -8 18 -8 36 0 14 6 28 7 31 2 3 -4 30 -8 60 -7
48 1 54 3 53 22 -2 19 31 80 39 72 2 -2 -1 -17 -7 -32 -21 -56 17 -87 55 -45
22 24 13 39 -11 19 -16 -13 -17 -11 -10 16 9 34 9 35 7 53 -1 15 -33 16 -48 1
-8 -8 -13 -8 -17 0 -13 20 -23 11 -35 -29 -13 -43 -38 -64 -62 -49 -10 6 -10
9 -1 9 17 0 52 37 52 54 0 17 -31 29 -53 20 -9 -3 -24 -23 -34 -45 -9 -21 -20
-39 -25 -39 -11 0 -11 -3 16 78 24 69 24 72 7 82 -16 8 -20 3 -31 -34 -10 -35
-16 -43 -31 -39 -24 7 -48 -13 -66 -54 -18 -44 -34 -42 -21 2 10 32 9 37 -20
66 -27 27 -32 30 -38 16 -3 -10 -4 -24 0 -32 6 -17 -23 -85 -36 -85 -10 0 -10
13 1 43 5 13 6 29 2 35 -14 24 -101 2 -101 -25 0 -17 -11 -17 -36 2 -25 19
-50 19 -58 -1 -9 -23 -8 -25 12 -22 23 4 23 -41 -1 -56 -14 -8 -20 -8 -27 4
-16 25 -11 54 18 111 31 61 61 79 54 31 -6 -46 15 -47 38 -1 12 22 19 44 15
47 -14 14 -74 10 -102 -8z m142 -130 c-16 -31 -35 -48 -35 -30 0 21 31 71 40
65 6 -4 4 -18 -5 -35z m229 18 c-10 -32 -31 -61 -37 -51 -8 12 20 73 33 73 7
0 9 -8 4 -22z m116 -3 c-7 -9 -15 -13 -18 -10 -3 2 1 11 8 20 7 9 15 13 18 10
3 -2 -1 -11 -8 -20z"/>
<path d="M1262 891 c4 -13 18 -16 19 -4 0 4 -5 9 -11 12 -7 2 -11 -2 -8 -8z"/>
<path d="M1177 866 c-20 -7 -30 -20 -37 -48 -11 -39 -38 -62 -58 -49 -9 5 -5
11 12 20 13 8 27 23 30 35 13 51 -50 48 -76 -4 -15 -29 -16 -37 -4 -55 16 -24
51 -31 72 -15 11 10 14 9 14 -9 0 -26 41 -29 61 -5 9 11 22 14 42 10 17 -3 35
-2 41 3 7 6 18 5 29 -4 15 -11 15 -14 2 -25 -8 -7 -15 -21 -15 -31 0 -42 51
-34 70 12 15 36 37 49 72 42 23 -4 26 -2 21 15 -4 18 24 89 32 80 2 -2 0 -20
-4 -40 -9 -39 1 -58 30 -58 10 0 20 6 22 13 3 6 6 2 6 -10 1 -17 7 -23 24 -23
25 1 96 55 85 66 -4 4 -14 2 -21 -4 -11 -9 -17 -4 -30 23 -12 24 -13 36 -5 41
6 4 8 3 4 -4 -3 -6 -2 -13 3 -17 11 -6 36 33 28 42 -3 3 -19 2 -36 -2 -23 -5
-32 -14 -42 -43 -6 -20 -15 -41 -20 -46 -15 -17 -19 0 -7 32 16 42 1 61 -36
44 -18 -8 -26 -8 -28 0 -7 19 -26 0 -33 -31 -3 -16 -15 -37 -26 -47 -19 -17
-19 -17 -5 23 8 22 11 45 7 51 -5 8 -51 10 -82 3 -4 0 -14 -19 -23 -41 -17
-42 -43 -58 -30 -17 12 36 10 62 -5 62 -8 0 -19 -13 -24 -30 -16 -50 -29 -60
-43 -33 -8 13 -13 32 -12 43 0 17 1 17 5 3 6 -25 20 -22 27 4 7 30 -3 37 -37
24z m-77 -47 c-7 -11 -14 -19 -16 -16 -7 7 7 37 17 37 6 0 5 -9 -1 -21z m253
-24 c-17 -36 -38 -38 -27 -2 9 30 24 48 35 42 4 -3 1 -21 -8 -40z m-196 -27
c-15 -9 -19 -4 -11 16 5 14 9 15 15 5 5 -8 3 -17 -4 -21z m410 0 c-15 -9 -19
-4 -11 16 5 14 9 15 15 5 5 -8 3 -17 -4 -21z m3 -28 c0 -5 -4 -10 -10 -10 -5
0 -10 5 -10 10 0 6 5 10 10 10 6 0 10 -4 10 -10z"/>
<path d="M210 689 c-46 -34 -51 -34 -96 -13 -55 26 -51 8 3 -20 l50 -25 -5
-54 c-4 -50 -2 -56 21 -72 20 -13 30 -14 46 -5 28 14 26 42 -4 78 -14 17 -25
32 -25 35 0 3 22 -2 50 -11 45 -14 50 -19 56 -51 12 -69 50 -101 82 -69 22 22
13 47 -25 73 l-38 25 38 0 c41 0 69 -22 99 -78 18 -34 47 -42 67 -18 18 21 3
43 -40 60 -21 9 -39 18 -39 21 0 3 21 4 48 2 l47 -3 5 -47 c7 -53 19 -71 46
-65 29 5 28 42 0 76 -15 16 -26 32 -26 34 0 2 15 5 34 6 26 2 39 -3 53 -21 29
-37 62 -52 79 -35 15 15 9 27 -26 51 -13 9 -19 17 -12 17 7 0 30 -11 50 -25
20 -14 45 -25 55 -25 30 0 16 33 -23 53 l-35 17 67 -1 c68 -2 98 10 98 37 0
35 -53 36 -102 2 l-28 -19 6 28 c4 20 1 33 -11 43 -24 20 -50 -10 -47 -54 2
-27 -2 -35 -20 -40 -49 -13 -58 -9 -47 23 13 36 -4 74 -29 69 -13 -3 -17 -15
-18 -53 l-1 -50 -44 -3 -44 -3 26 28 c35 37 41 57 23 80 -13 17 -15 17 -34 -6
-11 -13 -20 -33 -20 -45 0 -41 -22 -59 -66 -52 -21 3 -43 5 -49 6 -5 0 11 10
35 23 35 17 46 28 48 50 3 26 1 28 -25 25 -21 -2 -32 -12 -45 -40 -27 -57 -60
-67 -130 -39 -19 8 -16 10 23 10 47 1 69 14 69 42 0 38 -47 32 -108 -14 -21
-16 -40 -23 -57 -19 -31 5 -25 15 13 20 30 4 62 28 62 47 0 26 -40 23 -80 -6z
m60 2 c0 -10 -25 -22 -55 -27 -17 -3 -17 -1 5 16 26 21 50 26 50 11z m205 -20
c6 -10 -45 -55 -53 -46 -7 6 26 55 38 55 5 0 11 -4 15 -9z m75 -45 l-21 -21 7
30 c8 35 27 52 32 28 2 -8 -6 -25 -18 -37z m220 30 c0 -14 -4 -27 -9 -30 -12
-8 -22 20 -15 39 9 23 24 18 24 -9z m-410 -1 c0 -16 -38 -29 -67 -22 -14 3
-10 8 17 20 44 20 50 21 50 2z m290 -9 c0 -14 -4 -28 -10 -31 -6 -4 -10 7 -10
24 0 17 5 31 10 31 6 0 10 -11 10 -24z m230 -6 c24 -15 2 -24 -50 -21 l-25 2
25 14 c30 17 31 17 50 5z m-643 -113 c-14 -42 -72 8 -60 52 l6 24 29 -32 c16
-18 27 -38 25 -44z m549 38 c16 -12 16 -14 3 -15 -9 0 -22 7 -29 15 -16 19 0
19 26 0z m-431 -21 c30 -20 34 -54 6 -54 -18 0 -30 20 -37 58 -3 16 2 15 31
-4z m361 -6 c3 -5 4 -12 1 -14 -6 -6 -47 18 -47 27 0 10 39 -1 46 -13z m-198
-36 c2 -7 -3 -12 -11 -12 -17 0 -49 34 -40 43 8 8 45 -15 51 -31z m82 -13 c0
-11 -7 -19 -15 -19 -10 0 -15 10 -15 31 0 27 2 30 15 19 8 -7 15 -21 15 -31z"/>
<path d="M988 683 c-17 -4 -22 -14 -15 -29 1 -3 -6 -10 -15 -15 -11 -6 -15
-19 -13 -37 2 -15 4 -30 4 -34 1 -5 8 -8 17 -8 8 0 13 -4 9 -9 -7 -12 9 -22
46 -28 18 -2 29 0 29 7 0 7 7 10 15 7 18 -8 59 48 48 65 -4 7 -6 20 -5 29 6
33 -70 66 -120 52z"/>
<path d="M1191 649 c-26 -28 -27 -51 -2 -73 14 -13 28 -16 50 -11 17 4 32 10
32 13 10 61 5 73 -38 86 -15 5 -27 0 -42 -15z"/>
<path d="M1344 602 c-27 -27 -10 -72 27 -72 31 0 49 27 38 58 -10 31 -42 37
-65 14z"/>
<path d="M1450 555 c0 -8 5 -15 10 -15 6 0 10 7 10 15 0 8 -4 15 -10 15 -5 0
-10 -7 -10 -15z"/>
<path d="M1515 530 c3 -5 8 -10 11 -10 2 0 4 5 4 10 0 6 -5 10 -11 10 -5 0 -7
-4 -4 -10z"/>
<path d="M1570 509 c0 -5 5 -7 10 -4 6 3 10 8 10 11 0 2 -4 4 -10 4 -5 0 -10
-5 -10 -11z"/>
</g>
</svg>
