<?xml version="1.0" standalone="no"?>
<!DOCTYPE svg PUBLIC "-//W3C//DTD SVG 1.1//EN" "http://www.w3.org/Graphics/SVG/1.1/DTD/svg11.dtd" >
<svg xmlns="http://www.w3.org/2000/svg" xmlns:xlink="http://www.w3.org/1999/xlink" version="1.1">
<metadata>
Created by FontForge 20170731 at Mon Feb 10 22:10:50 2014
 By Aleksey,,,
Created by User's name with Font.My (http://font.my)
</metadata>
<defs>
<font id="PENCIL_SHARP" horiz-adv-x="282" >
  <font-face 
    font-family="PENCIL SHARP"
    font-weight="500"
    font-stretch="normal"
    units-per-em="1000"
    panose-1="2 0 6 3 0 0 0 0 0 0"
    ascent="800"
    descent="-200"
    x-height="665"
    cap-height="681"
    bbox="33 -176.556 526.111 835.409"
    underline-thickness="50"
    underline-position="-200"
    unicode-range="U+0020-201D"
  />
<missing-glyph horiz-adv-x="364" 
d="M33 0v666h265v-666h-265zM66 33h199v600h-199v-600z" />
    <glyph glyph-name=".notdef" horiz-adv-x="364" 
d="M33 0v666h265v-666h-265zM66 33h199v600h-199v-600z" />
    <glyph glyph-name=".null" horiz-adv-x="0" 
 />
    <glyph glyph-name="nonmarkingreturn" horiz-adv-x="333" 
 />
    <glyph glyph-name="space" unicode=" " horiz-adv-x="450" 
 />
    <glyph glyph-name="exclam" unicode="!" horiz-adv-x="173" 
d="M50 165v14q0 15 7 102q7 86 11 151q3 66 14 136q10 68 10 78v12q0 6 4.5 11t11 5t11.5 -5t5 -11v-12q0 -12 -11 -83q-10 -68 -14 -133q-3 -65 -10 -152q-7 -85 -7 -99v-14q0 -7 -5 -11.5t-11.5 -4.5t-11 4.5t-4.5 11.5zM81 51l3 -3q4 -5 4 -11.5t-4.5 -11t-11 -4.5
t-11.5 4l-3 3q-5 5 -5 11.5t5 11.5t11.5 5t11.5 -5z" />
    <glyph glyph-name="quotedbl" unicode="&#x22;" horiz-adv-x="227" 
d="M178 676l-1 -30q0 -30 -1 -73l-2 -44q0 -6 -5 -10.5t-11.5 -4.5t-11 5t-4.5 11l2 44q1 43 1 72l1 31q0 6 4.5 11t11 5t11.5 -5t5 -12zM96 668l-6 -27q-6 -27 -7 -47l-1 -21q0 -6 -5 -10.5t-11.5 -4t-11 5.5t-4.5 11l1 21q1 23 7 51l6 28q2 6 7.5 10t12 2.5t10 -7
t2.5 -12.5z" />
    <glyph glyph-name="numbersign" unicode="#" horiz-adv-x="447" 
d="M65 294l45 3q9 1 19 2q5 56 14 115l-29 -5q-7 -1 -12.5 3t-6.5 10.5t3 12t10 6.5l38 6h3q1 3 1 6q18 99 29 132l11 31q2 7 8 9.5t12 0.5t9 -8t1 -12l-11 -31q-10 -30 -27 -123q24 3 51 6q42 5 74 8q14 65 24 102q12 48 14 66l2 19q0 7 5.5 11t12 3.5t10.5 -5.5t4 -12
l-2 -19q-2 -21 -15 -71q-9 -33 -22 -92l8 1q7 1 12 -3.5t5.5 -11t-4 -11.5t-10.5 -6l-18 -1q-2 -10 -5 -22q-9 -43 -14 -91q6 1 12 1q41 5 47 6l6 1q6 1 11.5 -3.5t6.5 -11t-3 -11.5t-11 -6l-6 -1q-6 -1 -47 -5q-9 -2 -20 -3q-4 -47 -5 -100q-3 -128 -2 -173l1 -45
q0 -7 -5 -12t-11.5 -5t-11 5t-4.5 11l-1 46q-1 45 2 174q1 49 5 95q-25 -3 -54 -8q-36 -5 -65 -8q-1 -6 -1 -13q-6 -93 -12 -175q-5 -77 -4 -88l3 -10q1 -7 -2 -12.5t-9.5 -7t-12.5 2t-7 9.5l-3 10q-3 13 3 98q6 82 12 175v7q-7 0 -14 -1l-45 -3q-6 0 -11.5 4.5t-5.5 11
t4 11.5t11 5zM300 433q-28 -3 -64 -7q-32 -3 -59 -7q-10 -59 -16 -117q27 3 58 8q34 5 62 9q6 54 16 101q1 8 3 13z" />
    <glyph glyph-name="ampersand" unicode="&#x26;" horiz-adv-x="446" 
d="M117 361q-8 -22 -15 -37q-12 -25 -18 -75q-6 -47 8 -81q15 -36 27 -49q9 -9 30 -5q24 4 48 28q17 18 33 45q-11 10 -23 22q-43 44 -68 95q-13 26 -22 57zM126 492q8 17 22 44q17 34 25 75t7 77q0 33 -5 46h-1q-11 -7 -25 -33q-14 -27 -20 -71q-7 -45 -6 -93q1 -21 3 -45z
M135 422q2 -12 5 -23q10 -45 28 -81q22 -46 62 -86l16 -16q20 41 36 79q15 36 18 47q0 1 -1 1q-7 4 -14 3q-14 -2 -33 -2l-1.5 -0.5t-3.5 -1t-5 0t-6 3t-5 6.5q-7 13 -2 19t15 8l10 1q23 5 57 11q34 7 52 8l16 1q7 0 12 -4.5t5.5 -11t-4 -11.5t-11.5 -5l-16 -1
q-13 -1 -39 -6q9 -11 6 -24q-3 -11 -20 -54q-18 -42 -41 -88q19 -15 38 -26q41 -22 48 -25l7 -3q6 -2 9 -8t0.5 -12t-8.5 -9t-12 -1l-8 3q-8 3 -51 27q-19 11 -39 25q-17 -27 -35 -46q-31 -32 -66 -38q-38 -6 -58 15q-16 18 -33 58q-18 42 -11 98q7 55 21 84q10 23 22 62
q2 5 4 11q2 8 4 14q-3 15 -5 29q-6 45 -7 83q-1 52 6 99q7 49 24 81q18 34 38 46q15 8 28 3q11 -4 17 -17q8 -18 8 -60q1 -39 -8 -83q-8 -45 -28 -84q-18 -36 -25 -54q-3 -5 -5 -13q-5 -13 -11 -32z" />
    <glyph glyph-name="quotesingle" unicode="'" horiz-adv-x="180" 
d="M52 574l7 13q7 12 23 50q14 34 16 42v8q1 6 6 10.5t11.5 4t11 -5.5t3.5 -11v-8q-1 -10 -18 -52q-17 -40 -25 -54l-7 -12q-3 -6 -9.5 -8t-12.5 1.5t-7.5 10t1.5 11.5z" />
    <glyph glyph-name="parenleft" unicode="(" horiz-adv-x="256" 
d="M174 -162l-3 29q-3 27 -32 105q-31 82 -54 184t-31 189t-1 137q7 48 23 117q16 68 23 93q7 27 16 40l8 11q4 5 10.5 6.5t11.5 -2t6.5 -10.5t-2.5 -12l-7 -11q-6 -9 -12 -31q-7 -24 -23 -91q-15 -67 -22 -115q-6 -46 1 -129q7 -85 29.5 -185t52.5 -180q32 -82 35 -113
l3 -29q1 -6 -3 -11.5t-10.5 -6t-12 3.5t-6.5 11z" />
    <glyph glyph-name="parenright" unicode=")" horiz-adv-x="235" 
d="M112 727l3 -20q3 -19 14.5 -84t33.5 -186q23 -121 22 -182q0 -60 -16 -126q-15 -65 -30 -101t-26 -57q-12 -24 -25 -35l-11 -10q-5 -4 -12 -3.5t-11 5t-4 11.5t5 11l11 10q9 8 19 26q10 20 24 54t29 97q15 62 15.5 119t-21.5 176q-23 120 -34 185q-12 65 -15 86l-3 20
q-1 6 3 11.5t10.5 6.5t12 -3t6.5 -11z" />
    <glyph glyph-name="plus" unicode="+" horiz-adv-x="413" 
d="M225 430l1 -35q1 -33 5 -87q55 2 73 4q24 4 30 7l6 3q6 3 12.5 1t9.5 -7.5t1 -12t-8 -9.5l-7 -4q-9 -4 -39 -9q-21 -3 -76 -5q2 -40 3 -75q2 -47 1 -56v-7q0 -7 -5 -11t-11.5 -4t-11 5t-4.5 12l1 7q0 7 -2 53q-1 35 -3 75h-29l-106 -1q-6 0 -11 4.5t-5 11t4.5 11.5
t11.5 5l106 1h27q-4 54 -5 87l-1 35q0 7 4.5 12t11 5t11.5 -4.5t5 -11.5z" />
    <glyph glyph-name="comma" unicode="," horiz-adv-x="141" 
d="M81 64l6 -19q7 -23 4 -44q-3 -20 -6 -28l-3 -8q-2 -6 -8 -9t-12 -0.5t-9 8.5t-1 12l3 7q2 6 4 22q2 15 -2 31l-6 19q-2 6 1 12t9.5 8t12 -1t7.5 -10z" />
    <glyph glyph-name="hyphen" unicode="-" horiz-adv-x="306" 
d="M65 332l13 1q11 1 36 9q27 9 59 22q35 13 51 15l14 2q7 1 12 -3.5t6 -11t-3 -11.5t-11 -6l-14 -2q-13 -2 -43 -13q-33 -13 -61 -22q-29 -10 -44 -11h-13q-6 -1 -11.5 3.5t-5.5 11t4 11.5t11 5z" />
    <glyph glyph-name="period" unicode="." horiz-adv-x="134" 
d="M77 21l3 -3q5 -5 5 -11.5t-4.5 -11t-11.5 -4.5t-11 4l-3 3q-5 5 -5 11.5t4.5 11.5t11.5 5t11 -5z" />
    <glyph glyph-name="slash" unicode="/" horiz-adv-x="284" 
d="M50 22l5 32q5 33 32 184q27 152 66 278q38 125 44 150l5 26q2 6 7.5 9.5t12 2t10 -7t2.5 -11.5l-6 -26q-6 -26 -45 -152q-38 -125 -65 -275q-26 -151 -31 -183l-5 -32q-1 -6 -6.5 -10t-12 -3t-10.5 6.5t-3 11.5z" />
    <glyph glyph-name="zero" unicode="0" horiz-adv-x="325" 
d="M82 393q10 -3 11 -14l1 -27q2 -27 3 -83q1 -55 4 -98q3 -41 18 -72q16 -32 24 -41q6 -6 12 -6q9 1 28 10q17 9 23 29q7 26 16 91q10 66 16 121t5 125q0 69 -8 112q-9 45 -16 79q-5 28 -22 40q-19 14 -32 15q-10 0 -30 -21q-22 -24 -36 -77q-15 -55 -16 -118
q-1 -38 -1 -65zM65 257q-7 5 -7 13l-2 29q-2 30 -4 62q-3 33 -1 98q1 66 17 125q16 61 44 91q30 32 55 30q23 -1 48 -20q28 -20 36 -60q6 -34 15 -79t9 -118q1 -72 -5 -128t-16 -122q-10 -67 -18 -96q-9 -34 -38 -48q-26 -13 -43 -14q-19 0 -35 15q-12 13 -30 50t-21 83
q-3 40 -4 89z" />
    <glyph glyph-name="one" unicode="1" horiz-adv-x="364" 
d="M119 60l8 -1q6 -2 35 -5q18 -2 39 -3q-1 11 -4 45q-3 32 -9 68t-14 85q-8 48 -14 90l-12 82q-6 42 -8 77t-2 90q0 52 -5 64q-1 4 -3 6q-7 -1 -21 -4q-20 -4 -26 -8l-9 -5q-6 -3 -12.5 -1.5t-9.5 7t-1.5 12t7.5 10.5l8 5q11 6 36 11q24 6 33 5q17 -1 28 -25q7 -18 7 -77
q0 -55 2 -88q2 -34 8 -74q6 -41 12 -83q6 -41 14 -89.5t14 -85t8.5 -70.5t3.5 -45l1 -2q35 0 50 -1l16 -1q7 -1 11.5 -6t4 -11.5t-5.5 -11t-12 -3.5l-16 1q-15 1 -54 1q-38 0 -69 3q-30 4 -38 6l-7 1q-7 2 -10.5 7.5t-2 12t7 10t11.5 1.5z" />
    <glyph glyph-name="two" unicode="2" horiz-adv-x="289" 
d="M60 611l4 11q4 13 21 31q14 14 27 31q17 20 36 26q22 7 43 -5t31 -51q7 -33 10 -60q3 -25 5 -65q3 -39 3 -64q-1 -24 -6 -61q-6 -37 -12 -67q-7 -32 -29 -72q-20 -36 -28 -57q-7 -23 -20 -54q-14 -32 -30 -57q-15 -22 -21 -34q-7 -11 -11 -22q0 -2 -1 -4q8 -2 22 -2h57
q26 1 44 0l17 -1q7 0 11.5 -5t4 -11.5t-5.5 -11t-11 -4.5l-18 1q-17 1 -42 0h-57h-6.5h-7h-6.5t-6 1t-6 1.5t-5.5 2l-5 3t-4.5 4t-3 5.5q-7 13 -1 32q5 14 13 27q7 13 23 36q14 22 26 51q13 31 20 53q8 23 30 62q20 35 26 62q6 30 11 65t6 58q0 23 -2 61q-3 39 -6 64
q-2 25 -10 56q-6 25 -15 30t-17 3q-10 -4 -21 -17q-14 -17 -29 -32q-12 -13 -14 -19l-3 -10q-2 -7 -8 -10t-12 -1t-9.5 8t-1.5 12z" />
    <glyph glyph-name="three" unicode="3" horiz-adv-x="303" 
d="M51 633l3 8q4 13 31 31q25 16 47 18q25 2 58 -30q31 -31 36 -81q5 -49 -17 -100q-21 -47 -28 -65q-7 -16 -10 -27q2 -2 5 -3q16 -11 35 -30q22 -21 29 -48q7 -24 10.5 -53t3.5 -59q-1 -31 -5 -71q-4 -44 -24 -67q-19 -22 -39 -32q-23 -11 -54 -7l-26 4q-7 1 -11 6.5
t-3 12t6.5 10.5t11.5 3l27 -4q21 -3 34 4q15 7 30 24q13 15 17 49q3 39 4 68q0 28 -3.5 54.5t-9.5 48.5q-5 19 -20 34q-17 17 -30 25q-25 16 -19 39q3 12 11 31q8 18 28 66q19 43 15 84q-3 39 -27 62q-22 21 -32 20q-14 -1 -33 -13q-14 -10 -18 -15l-3 -7q-2 -6 -8 -9
t-12 -1t-9 8t-1 12z" />
    <glyph glyph-name="four" unicode="4" horiz-adv-x="278" 
d="M159 500v-9q1 -8 7 -81q6 -68 16 -126q13 -1 22 -2l9 -1q6 -1 10.5 -6t3.5 -11.5t-6 -11t-12 -3.5l-8 1q-6 0 -14 1q8 -42 12 -65q6 -29 12 -56q6 -28 10 -51q5 -24 6 -34l2 -9q0 -7 -4 -12t-10.5 -6t-11.5 3t-6 11l-1 9q-1 9 -6 31q-5 23 -11 51t-11 57q-5 25 -13 72h-3
q-16 -3 -39 -5t-38 1q-25 6 -25 25v16q0 10 2 30q1 19 2 46q0 34 1.5 64t2.5 77q2 48 12 106l10 57q1 7 6.5 10.5t12 2.5t10.5 -6.5t3 -11.5l-10 -57q-10 -55 -12 -101q-1 -48 -2.5 -78t-1.5 -60q-1 -31 -2 -51q-2 -19 -2 -28v-10q10 -1 29 0q21 2 36 4q1 0 2 1
q-9 57 -15 123q-6 73 -6 81l-1 9q-1 6 3.5 11t11 6t11.5 -3.5t6 -10.5z" />
    <glyph glyph-name="five" unicode="5" horiz-adv-x="304" 
d="M144 661l-10 1q-7 1 -12 -1q-10 -3 -20 -5q-6 -1 -11 -3l-3 -6q-4 -11 -4 -29q-1 -22 -2 -48v-48q1 -20 1 -45q0 -14 -1 -23h6q29 4 61 -7q34 -11 52 -33q17 -20 30 -72q13 -49 20 -110q8 -62 -1 -105q-9 -42 -17 -66q-8 -25 -19 -39q-12 -16 -40 -25q-26 -9 -40 -7
l-10 2q-7 1 -10.5 6.5t-2.5 12t6.5 10t12.5 2.5l9 -1q6 -1 25 5q18 6 25 15q7 10 14 30q7 21 16 61q8 39 0 95q-7 59 -19 106q-11 45 -24 60q-12 14 -37 23q-26 8 -47 6q-43 -6 -42 21q0 8 1 33v44q-1 20 0 50q0 29 1 48q1 22 6 38q7 20 19 25q8 4 19 6q9 1 16 4q12 3 26 2
l10 -2q6 0 10 -5.5t3.5 -12t-6 -10.5t-11.5 -3z" />
    <glyph glyph-name="six" unicode="6" horiz-adv-x="297" 
d="M86 304q-1 -4 -1 -7q-5 -71 -1 -137q4 -63 18 -89q13 -24 39 -41q10 -7 17.5 -5.5t16.5 12.5q23 24 30 72q8 52 10 109q2 55 -3 97q-4 36 -12 42.5t-31 5.5q-23 -2 -54 -30q-15 -14 -24 -23q-3 -3 -5 -6zM54 315l2 18q6 57 17 119q14 79 33 139q18 57 24 74l5 16
q2 7 8 10t12 1t9 -8t1 -12l-5 -17q-5 -16 -24 -74q-18 -57 -32 -135q-8 -47 -13 -92q1 1 2 3q40 35 74 37q35 3 53 -11.5t24 -63.5q5 -44 3 -103q-2 -58 -11 -111q-8 -58 -37 -90q-16 -18 -35.5 -21t-39.5 9q-33 21 -51 53q-17 31 -21 102q-4 62 0 129q-2 6 -2 11l2 8
q0 4 2 9z" />
    <glyph glyph-name="seven" unicode="7" 
d="M68 706l17 -2q17 -2 52 -3q37 -1 60 -6q33 -7 35 -47q1 -30 -10 -89q-10 -57 -29 -129q-17 -69 -21 -132q-3 -65 -5 -126t-3 -86q0 -25 -1 -35l-1 -8q-1 -7 -6 -11.5t-11.5 -3.5t-11 6t-3.5 12l1 8q1 9 1 33q1 24 3 86q2 61 5 126q4 67 22 139q19 71 29 127t9 82
q-1 15 -10 17q-19 4 -54 5q-37 1 -54 3l-18 2q-6 1 -10.5 6t-3.5 11.5t6 10.5t12 4z" />
    <glyph glyph-name="eight" unicode="8" horiz-adv-x="303" 
d="M143 362l-8 -12q-30 -46 -41 -88q-10 -42 -12 -93q-1 -50 12 -83t37 -52q22 -18 48 -18q23 1 31 17q12 23 12 61q0 42 -8 92t-29 96q-21 47 -34 67q-4 6 -8 13zM149 429q10 16 19 32q26 43 29 81q2 40 -9 83q-10 41 -34 62q-20 17 -28 14q-12 -5 -28 -30t-13 -72
q3 -50 19 -87q17 -38 33 -64q7 -11 12 -19zM126 394l-5 9q-2 5 -1 12q-4 7 -10 16q-18 28 -35 68q-18 43 -22 98q-3 57 18.5 91t42.5 42q25 11 61 -19q31 -27 44 -78q12 -49 10 -93q-3 -46 -33 -96q-15 -24 -31 -49q-1 -2 -2 -3q7 -13 16 -27q13 -21 35 -70q23 -50 32 -104
q8 -53 8 -97q0 -46 -15 -75q-17 -34 -59 -35q-39 0 -70 26q-29 24 -45 64q-17 39 -15 96q2 54 13 100q12 47 46 97q7 11 17 27z" />
    <glyph glyph-name="nine" unicode="9" horiz-adv-x="289" 
d="M199 429v2v1q1 39 4 94q4 55 4 78v44v28v2q-6 2 -17 1q-22 -2 -36 -10q-16 -8 -41 -25q-21 -14 -26 -31q-6 -20 -5 -62q1 -44 6 -66q4 -18 24 -34q22 -16 38 -20q18 -3 40 -3zM198 397l-7 -1q-25 0 -47 4q-23 5 -51 26q-30 22 -36 52q-6 26 -7 72q-1 48 6 72q8 28 39 48
q26 18 44 27q20 11 48 13q34 3 44 -11q8 -11 8 -23v-28v-45t-4 -79q-3 -54 -4 -93q0 -8 -1 -18q-1 -37 -4 -92q-4 -71 -7 -119t-4 -103q-2 -54 1 -64l3 -13q2 -6 -1.5 -12t-10 -7.5t-12 2t-7.5 9.5l-3 13q-4 15 -2 73q1 55 4 104q3 43 7 119q3 42 4 74z" />
    <glyph glyph-name="colon" unicode=":" horiz-adv-x="143" 
d="M86 111l3 -3q4 -5 4 -11.5t-4.5 -11t-11 -4.5t-11.5 4l-3 3q-5 5 -5 11.5t5 11.5t11.5 5t11.5 -5zM77 478l3 -3q5 -5 5 -11.5t-4.5 -11t-11.5 -4.5t-11 4l-3 3q-5 5 -5 11.5t4.5 11t11.5 4.5t11 -4z" />
    <glyph glyph-name="semicolon" unicode=";" horiz-adv-x="169" 
d="M52 40l18 37q16 34 17 59q0 15 -4 16l-19 3q-7 1 -10.5 6.5t-2.5 12t6.5 10t11.5 2.5l19 -3q32 -5 31 -48q-1 -32 -21 -72l-18 -37q-3 -6 -9 -8t-12 1t-8 9t1 12zM101 458l3 -3q4 -5 4 -11.5t-4.5 -11t-11 -4.5t-11.5 4l-3 3q-5 5 -5 11.5t5 11t11.5 4.5t11.5 -4z" />
    <glyph glyph-name="equal" unicode="=" horiz-adv-x="363" 
d="M66 287h27q27 -1 76.5 0.5t87.5 4.5l39 4q6 0 11 -4t6 -10.5t-3.5 -11.5t-11.5 -6l-38 -4q-39 -3 -90 -4.5t-78 -0.5h-26q-7 1 -11.5 5.5t-4.5 11t5 11.5t11 4zM80 361l44 4q44 4 84 11q42 7 61 7l17 -1q7 0 11.5 -4.5t4.5 -11t-4.5 -11.5t-11.5 -5l-17 1q-16 0 -56 -7
q-41 -7 -86 -11l-45 -4q-6 -1 -11 3.5t-6 11t3.5 11.5t11.5 6z" />
    <glyph glyph-name="question" unicode="?" horiz-adv-x="253" 
d="M136 33l3 -3q5 -5 5 -11.5t-5 -11.5t-11.5 -5t-11.5 5l-3 3q-4 5 -4 11.5t4.5 11t11 4.5t11.5 -4zM50 589v10q0 13 17 51q17 37 24 46q11 14 37 10q23 -4 41 -23q19 -19 27 -62q8 -40 7 -69q-1 -30 -11 -74q-10 -46 -25 -76q-15 -28 -24 -51q-9 -21 -15 -63
q-7 -44 -13 -80q-5 -34 -6 -53v-28v-7q0 -7 -4.5 -11.5t-11.5 -4.5t-11.5 4.5t-4.5 11.5v7v29q1 21 7 57q5 36 12 80q7 45 17 70t25 54q14 26 23 68q10 41 10 67q1 26 -6 63q-6 34 -18 46q-12 11 -24 14q-5 1 -8 0q-5 -9 -19 -38q-13 -29 -14 -37v-10q1 -6 -4 -11t-11.5 -5
t-11 4.5t-5.5 10.5z" />
    <glyph glyph-name="at" unicode="@" horiz-adv-x="576" 
d="M342 574q-1 0 -2 1l-23 14q-18 11 -35 7q-20 -4 -38 -22q-18 -17 -23 -63q-5 -51 -4 -105.5t7 -95.5q5 -36 29 -60q14 -15 22 -19q10 7 29 31q23 29 30 68q1 7 2 16q3 27 5 62v75q0 59 1 91zM369 606q4 -4 6 -7.5t2 -5.5t-0.5 -4t-1.5 -3l-1 -1q1 -22 1 -57q1 -35 -1 -97
q0 -12 -1 -23q0 -18 1 -32q0 -16 1 -30q1 -26 5 -46q4 -23 12 -27q5 -2 20 16q22 25 45 73t31 96q7 49 6 109q0 60 -9 102q-9 40 -26 59q-19 20 -62 47q-41 26 -67.5 28t-65.5 -13q-38 -16 -74 -62q-37 -48 -57 -116q-21 -71 -37 -151q-16 -79 -14 -145q2 -64 29 -119
q26 -54 67 -86q42 -32 74 -40q31 -7 83 9q50 16 64 41l17 30q3 6 9.5 7.5t12.5 -1.5t7.5 -9.5t-1.5 -12.5l-17 -30q-21 -36 -83 -55q-60 -19 -100 -10q-38 9 -85 45q-48 37 -77 98q-30 61 -32 132q-2 70 15 152q16 82 37 154q22 74 63 127t87 71q46 19 80 16t82 -33
q47 -29 68 -52q24 -25 34 -74q10 -46 10 -109q1 -62 -7 -114t-33 -105q-25 -52 -49 -80q-32 -36 -58 -23q-19 8 -27 35q-9 -21 -23 -38q-29 -37 -44 -42q-4 -2 -9 -2t-8.5 0.5t-8 3.5l-7.5 5t-8 6.5t-7 6.5l-7 7q-31 32 -38 79q-6 43 -7 99t4 109q6 58 33 83q25 24 53 30
q29 7 58 -11l15 -9z" />
    <glyph glyph-name="A" unicode="A" horiz-adv-x="333" 
d="M75 319h9q4 14 7 29q26 114 35 167q9 55 20 87q11 33 19 44q7 8 13 9.5t10 -4t7 -11.5t5 -15t2.5 -12.5t0.5 -6.5q5 -39 14 -99q11 -61 17 -122q7 -60 18 -134q10 -74 19 -114q9 -41 11 -59q2 -19 1 -28l-1 -8q-1 -6 -6 -10.5t-11.5 -3.5t-11 6t-3.5 12l1 7q1 6 -1 22
q-1 16 -10 55q-9 41 -20 116q-3 24 -6 47h-9q-10 0 -39 -2q-28 -2 -55 -3q-16 -74 -21 -119q-5 -60 -7 -87l-1 -28q0 -7 -5 -11.5t-11.5 -4t-11 5.5t-4.5 11l1 28q2 29 8 89q4 44 19 115h-1q-7 0 -12 4.5t-5 11t4.5 11.5t10.5 5zM118 321q22 0 46 2q30 2 42 2h3q-3 29 -7 57
q-6 59 -16 120q-8 47 -12 81q-9 -28 -16 -73q-9 -55 -36 -169z" />
    <glyph glyph-name="B" unicode="B" horiz-adv-x="332" 
d="M96 374q6 4 13 8q24 14 48 39q23 23 33 60q10 40 10 67q-1 26 -11 44q-10 16 -41 29q-33 13 -47 11q-11 -1 -14 -5q-5 -7 -3 -17q1 -15 7 -77q6 -63 5 -143v-16zM95 332q-1 -44 -2 -83q-2 -63 -5 -113q-3 -51 -4 -70l-2 -14l5 1q16 5 43 15q26 11 48 25q20 13 24 19
q5 9 13 25q7 16 21 44q13 24 14 55q2 28 -13 45q-17 21 -34 31q-15 10 -49.5 16.5t-58.5 3.5zM63 352v1q1 27 1 38q1 78 -5 138q-6 62 -7 78q-2 21 8 37q11 18 38 20q22 2 62 -14q41 -16 57 -42q14 -25 15 -59q0 -32 -11 -76q-13 -45 -41 -74q-20 -21 -41 -36q10 -1 20 -3
q41 -8 61 -21q21 -13 41 -37q23 -27 21 -68q-2 -38 -17 -68q-14 -27 -22 -43q-8 -17 -14 -27q-7 -13 -34 -30q-25 -16 -53 -27q-29 -12 -46 -17l-17 -4q-6 -2 -12 1.5t-8 9.5q-1 3 0 6q-10 6 -9 16l2 18q1 19 4 69t5 112q1 42 2 93v9z" />
    <glyph glyph-name="C" unicode="C" horiz-adv-x="307" 
d="M235 626l-34 4q-28 3 -58 -18t-43 -64q-13 -47 -16 -86q-2 -41 -2 -96q1 -55 2.5 -93.5t6.5 -89.5t14 -102q8 -44 20 -52q14 -10 27 -9q13 0 32 12.5t28 32.5q11 22 12 33l2 13q1 6 6.5 10.5t11.5 3.5t10.5 -6.5t3.5 -11.5l-2 -14q-2 -15 -15 -42t-39.5 -44.5
t-48.5 -18.5q-24 -1 -46 15q-24 16 -34 73q-9 50 -14 103.5t-7 91.5q-1 39 -2 95q0 56 2 98q3 43 18 93q15 53 55 81q39 28 80 24l34 -5q6 0 10.5 -5.5t3.5 -12t-6.5 -10.5t-11.5 -3z" />
    <glyph glyph-name="D" unicode="D" horiz-adv-x="350" 
d="M89 41q9 8 19 14q11 8 18 15t9 12q4 9 11 22q8 13 29 39q18 23 29 53q12 31 19 53t21 53q12 29 21 73q8 42 -5 88q-13 48 -36 90q-23 40 -51 60q-28 21 -42 24q-15 4 -40 3h-7q2 -13 5 -36q4 -36 6 -73.5t2 -85.5t-1 -117q-2 -69 -3 -136q-1 -66 -3 -116zM63 14
q-7 5 -6 13l1 50q2 49 3 116t3 136q1 69 1 116t-2 84t-6 71t-6 43q-3 12 5.5 19.5t16.5 8.5t17 1q29 1 49 -4t53 -29t60 -71q25 -45 39 -96q15 -53 5 -103q-9 -47 -23 -80q-13 -30 -20 -50q-7 -22 -19 -55q-13 -34 -34 -61q-20 -24 -26 -35q-7 -12 -10 -19q-4 -10 -14 -21
q-10 -10 -24 -19q-13 -9 -24 -19l-13 -11q-5 -5 -11.5 -4.5t-10.5 5.5q-5 5 -4 14z" />
    <glyph glyph-name="E" unicode="E" horiz-adv-x="218" 
d="M152 639l-21 1q-17 0 -23 -1q-2 -1 -7 -6t-10 -23q-4 -20 -6 -55q-1 -37 -1 -81q1 -45 -1 -85v-8h3h11q11 0 30 -1l18 -1q6 0 10.5 -5t4.5 -11.5t-5 -11t-12 -4.5l-18 1q-17 1 -28 1h-11h-4v-39q0 -40 1 -73q0 -33 2 -75q2 -39 2 -72q1 -31 0 -44v-13q6 -2 19 -1h31h13
q7 0 11.5 -4.5t4.5 -11t-4.5 -11.5t-11.5 -5h-13h-30q-20 -1 -32 3q-20 7 -20 25q0 7 1 20v42q-1 29 -3 71t-2.5 75.5t-0.5 73.5q0 41 1 81q2 39 1 83q0 44 1 82q2 39 7 62q6 25 18 37q11 13 23 15q9 3 32 2l20 -1q7 0 11.5 -5t4 -11.5t-5.5 -11t-11 -4.5z" />
    <glyph glyph-name="F" unicode="F" horiz-adv-x="246" 
d="M181 354l-26 -1q-25 -1 -39 -3v-3q3 -55 5 -130q2 -74 3 -110.5t1 -60.5v-23q0 -6 -4.5 -11t-11.5 -5t-11.5 5t-4.5 11v23q0 23 -1 59t-3 111t-5 129q-3 55 -11 117q-8 63 -12 102q-4 38 -8 55q-4 19 -3 29q2 20 25 23q11 1 34 5q24 4 40 5l15 2q6 0 11 -4.5t5.5 -11
t-3.5 -11.5t-11 -5l-15 -2q-14 -1 -37 -4q-20 -4 -32 -5q1 -7 3 -15q3 -18 8 -58q4 -38 12 -101q5 -44 8 -84q15 2 41 3l26 1q7 0 11.5 -4.5t5 -11t-4 -11.5t-11.5 -5z" />
    <glyph glyph-name="G" unicode="G" horiz-adv-x="377" 
d="M244 649l-11 3q-8 3 -21 3q-11 0 -38 -14q-25 -13 -37 -47q-14 -39 -28 -104q-14 -64 -23 -132q-10 -66 4 -113q14 -51 36 -110q20 -54 42 -68q25 -17 42 -23t29 -6q8 -1 10 1q5 4 7 8q2 5 7 20q6 17 14 38q8 19 14 40q5 20 4 30q0 4 -1 5q-6 3 -20 4q-17 0 -32 -4
q-16 -3 -22 -6l-7 -2q-6 -2 -12 1t-8 9t1 12t9 8l6 3q8 2 26 7q18 4 40 4q22 -1 34 -8q17 -9 18 -31q1 -16 -6 -40q-6 -23 -14 -44q-8 -20 -13 -36q-6 -18 -10 -26q-5 -8 -13 -16q-11 -10 -33 -9q-17 0 -38 8q-21 7 -50 26q-30 20 -54 84q-22 60 -37 112q-15 54 -5 126
q10 69 24 135t29 108q17 46 53 64q33 18 52 18q17 0 30 -4l10 -3q7 -1 10 -7t1.5 -12.5t-7.5 -9.5t-12 -2z" />
    <glyph glyph-name="H" unicode="H" 
d="M230 660v-22v-97.5t-2 -138.5q-1 -17 -1 -36q2 -3 2 -6q0 -6 -2 -10l-2 -74q0 -62 2 -111q1 -50 3 -87t2 -48v-10q0 -7 -4.5 -11.5t-11 -4.5t-11.5 4.5t-5 10.5v11q0 10 -2 47t-3 87q-2 49 -2 113q1 31 1 63q-11 -1 -35 -3q-39 -3 -63 -3h-11q1 -29 3 -60q4 -78 10 -139
q5 -60 11 -75l7 -18q2 -6 -0.5 -12t-8.5 -8.5t-12.5 0.5t-8.5 9l-7 17q-7 20 -13 84q-6 62 -10 140t-5 136.5t-1 145.5q1 86 0 112v25q0 7 4.5 11.5t11 4.5t11.5 -4.5t5 -11.5v-25q1 -26 0 -112q0 -87 1 -145q0 -20 1 -43h12q23 0 60 3q27 2 39 4q0 15 1 30q2 64 2 138v97
v22q0 6 5 11t11.5 5t11 -5t4.5 -11z" />
    <glyph glyph-name="I" unicode="I" horiz-adv-x="307" 
d="M80 74l18 -1q18 0 53 -4q3 0 7 -1v12v35q-1 18 -6 56q-5 40 -9 93q-5 53 -6.5 95t-3.5 112q-1 72 -1 122v46q-17 -4 -34 -7l-29 -5q-7 -1 -12.5 3t-6.5 10.5t3 12t10 6.5l29 5q29 5 57 10q29 6 36 7h7q6 0 11 -4.5t5.5 -11t-4 -11.5t-11.5 -5h-6q-4 -1 -23 -4v-2v-50
q0 -50 1 -121q2 -70 3 -112q2 -41 6 -93q5 -53 10 -92q5 -40 6 -59v-36v-14q6 0 11 1q18 1 28 2l10 2q7 1 12.5 -3t6 -10.5t-3.5 -12t-10 -6.5l-11 -2q-11 -1 -31 -2q-10 -1 -25 0h-3h-4q-10 1 -23 2q-33 4 -50 4l-18 1q-7 0 -11.5 5t-4 11.5t5 11t11.5 4.5z" />
    <glyph glyph-name="J" unicode="J" 
d="M60 666l8 4q9 3 38 10q29 6 60 10q31 5 38 7l9 2q6 1 11.5 -2t7.5 -9.5t-1.5 -12.5t-9.5 -7l-9 -2q-9 -3 -41 -7l-10 -2q1 -1 1 -3l2 -41q1 -41 2 -116q0 -78 1 -139v-134q0 -71 1 -115q1 -45 1 -74q-1 -31 -5 -53q-5 -21 -11 -34q-8 -14 -26 -24t-31 -11l-9 -1
q-7 0 -12 4t-5.5 10.5t4 11.5t10.5 6l9 1q6 0 18 7q11 6 14 11q4 8 7 26q4 18 5 46q0 29 -1 73q-1 45 -1 116v134q-1 61 -1 139q-1 75 -2 115l-2 40q-9 -2 -17 -4q-26 -5 -33 -8l-8 -3q-6 -3 -12 0t-8.5 9t0 12t8.5 8z" />
    <glyph glyph-name="K" unicode="K" horiz-adv-x="336" 
d="M82 677l1 -24q2 -26 4 -107q2 -55 4 -114l8 13q30 47 63 106t50 95q17 38 25 48l6 8q4 5 11 6t12 -3t6 -10.5t-3 -11.5l-7 -9q-5 -6 -21 -41q-17 -38 -51 -98q-23 -42 -46 -78q9 -3 11 -12l7 -35q7 -33 28 -88q21 -56 43 -112t31 -74q10 -19 16 -31l5 -12q3 -6 1 -12
t-8 -9t-12.5 -0.5t-8.5 8.5l-6 11q-6 12 -15 31q-10 19 -33 76q-22 56 -43 113t-29 93l-5 23l-30 -46q-1 -2 -3 -4q2 -88 4 -144t4 -111q3 -54 3 -71l1 -15q1 -7 -3.5 -12t-11 -5.5t-11.5 4t-6 11.5v16q-1 17 -4 71q-2 54 -4 111q-2 56 -4 144q-3 88 -6 169q-2 81 -4 106
l-1 25q0 6 4.5 11t11 5.5t11.5 -4t5 -11.5z" />
    <glyph glyph-name="L" unicode="L" horiz-adv-x="316" 
d="M81 676l7 -17q9 -20 19 -99q11 -76 20 -167t14 -161t6 -96v-50q0 -25 -1 -37q0 -2 2 -3q6 -5 28 -9q27 -5 52 -10l26 -5q6 -2 9.5 -7.5t2.5 -12t-7 -10t-12 -2.5l-25 6q-26 5 -51 10q-29 5 -41 13q-17 11 -16 32q1 12 1 35v50q-1 25 -6 94t-14 159.5t-19 166.5
q-11 74 -17 90l-8 18q-2 6 0.5 12t8.5 8.5t12 0t9 -8.5z" />
    <glyph glyph-name="M" unicode="M" horiz-adv-x="432" 
d="M50 43l2 31q3 31 8 85t11 110q7 55 12 118q6 64 13 122t8 89q1 33 1 40q1 16 17 11t17 -10q3 -13 15 -92q11 -76 37 -162q23 -76 32 -127q8 41 22 95q20 78 26 124q7 48 23 111.5t19 72.5q14 35 33 -28q4 -14 4 -17q3 -48 9 -117t8 -112q2 -42 6 -130q5 -88 6 -126l3 -57
v-19q0 -6 -4.5 -11t-11 -5t-11.5 4.5t-5 10.5v19q-1 19 -3 56q-1 39 -5.5 126.5t-6.5 130.5q-2 42 -8 111q-3 38 -5 71q-14 -54 -19 -95q-7 -49 -27 -128q-20 -78 -29 -128t-10 -60q0 -1 -0.5 -3t-2.5 -6.5t-5 -7t-8 -2.5t-11 5t-7.5 9t-1 9l0.5 5q-1 18 -9 71
q-7 53 -32 139q-21 68 -33 132v-2q-7 -58 -13 -122q-5 -63 -12 -119q-6 -55 -11.5 -108.5t-7.5 -84.5l-2 -32q-1 -6 -6 -10.5t-11.5 -4t-10.5 5.5t-4 12z" />
    <glyph glyph-name="N" unicode="N" horiz-adv-x="372" 
d="M50 75l4 38q4 39 8.5 95.5t6.5 133.5q1 78 3 144q1 66 -1 108q-1 43 -2 59q0 1 -1 2t-2 4t-0.5 5.5t4 6t10.5 5.5q13 4 19 -2t5 -15l-1 -8q3 -21 19 -77q16 -57 31 -111q16 -54 23 -104q7 -49 21 -105q13 -55 32 -102q9 -21 16 -39q3 50 10 92q8 50 20 138q13 86 14 129
t1 100v79q1 21 0 30v9q0 7 4.5 11.5t11 5t11.5 -4t5 -11.5v-9q1 -9 0 -32v-78q0 -58 -1 -101q-1 -44 -14 -133q-13 -88 -21 -138q-7 -49 -11 -110q-2 -42 -15 -64q-10 -17 -22 2q-5 9 -13 39q-6 27 -25 73q-20 49 -35 107q-14 57 -21 107q-6 48 -21 100q-10 32 -19 65v-34
q-2 -67 -3 -144q-2 -77 -6.5 -134.5t-8.5 -96.5l-4 -39q-1 -6 -6 -10.5t-11.5 -3.5t-11 6t-3.5 12z" />
    <glyph glyph-name="O" unicode="O" horiz-adv-x="353" 
d="M82 496q7 -5 7 -13l-2 -33q-1 -32 -2 -103q0 -71 6 -133q6 -60 25 -107q20 -47 43 -73q20 -21 37 -17q18 5 22 14q6 18 27 71q20 51 25 144q4 94 -5.5 158t-30.5 126q-20 59 -55 85q-27 21 -37 20q-11 -6 -33 -43q-23 -40 -25 -63q-2 -14 -2 -33zM54 390q-1 3 -1 4v15
q-1 15 -2.5 55t1.5 68q3 31 29 76q28 47 47 56q15 8 31.5 1t39.5 -24q42 -33 65 -101q23 -64 32.5 -131t4.5 -165q-4 -98 -26 -154q-21 -52 -27 -70q-10 -25 -44 -34q-36 -9 -68 27q-28 30 -49 82q-22 51 -28 116q-6 63 -6 136q1 24 1 43z" />
    <glyph glyph-name="P" unicode="P" horiz-adv-x="263" 
d="M107 356q10 7 17 17q14 18 28 40q14 20 22.5 54.5t6.5 56t-14 46.5q-11 26 -32 45q-19 17 -33 17q2 -11 4 -30q2 -25 4 -54t-1 -107q-2 -42 -2 -85zM81 44l1 15q1 15 -2 80q-2 67 -4 145v18q-6 -4 -13 -3t-10.5 6.5t-2 12t6.5 10.5l8 5q3 3 10 6q0 52 2 103q3 77 1 104
q-2 28 -4 53q-3 25 -4 35q-3 15 8 22t24 8q27 0 54 -25q26 -24 41 -55q13 -31 15.5 -57.5t-7.5 -66.5t-26 -65q-15 -22 -29 -41q-17 -22 -41 -34h-2q1 -18 1 -35q2 -78 4 -144q3 -67 2 -83l-1 -16q0 -6 -5 -10.5t-11.5 -4.5t-11 5t-4.5 12z" />
    <glyph glyph-name="Q" unicode="Q" horiz-adv-x="370" 
d="M200 130v-26q0 -3 1 -7q13 14 23 40q15 37 34 88q18 49 25 95.5t4 130.5q-4 83 -19 126t-51 81q-29 32 -48 22q-25 -14 -45 -46q-20 -33 -28 -87q-8 -57 -12 -116q-4 -58 0 -114q4 -54 8 -116q3 -5 2 -9v-15l2 -25q1 -10 5 -21q8 -23 29 -40q20 -16 31 -15q4 0 8 2
q0 13 -1 26v26q0 6 5 11t11.5 5t11 -5t4.5 -11zM64 148q-3 13 -2 25v4l-1 16q-4 65 -9 122q-4 58 0 118t13 119q9 60 32 99q24 39 57 57q41 22 87 -28q40 -44 57 -92t21 -136q4 -87 -3.5 -136.5t-27.5 -101.5q-19 -51 -34 -89q-16 -42 -43 -61q-4 -3 -8 -5q1 -5 2 -9
q3 -29 15 -57q10 -23 17 -33l7 7q5 5 11.5 4.5t11 -5.5t4.5 -11.5t-5 -10.5l-10 -9q-9 -8 -20.5 -7.5t-20.5 8.5q-11 12 -25 45q-13 32 -17 64q-5 -1 -10 -1q-23 -1 -53 22q-26 21 -38 50q-7 5 -7 13z" />
    <glyph glyph-name="R" unicode="R" horiz-adv-x="287" 
d="M94 398q7 3 17 8q15 6 24 28q12 26 26 62q12 32 2 68q-12 37 -26 54q-13 16 -27 20q-8 3 -12 3q-1 -3 -1 -8q0 -15 1 -46q1 -32 -1 -85q-1 -43 -3 -104zM50 62l2 41q1 40 4 109.5t5.5 153.5t3.5 136q2 53 1 84q-1 32 -1 47q0 24 14 34q14 11 41 2q23 -8 42 -30
q18 -22 31 -66q14 -47 -2 -88q-14 -37 -26 -64q-15 -32 -40 -44q-5 -3 -10 -5q6 -7 12 -17q16 -23 23 -48q7 -22 14 -46q5 -23 14 -47q10 -25 19 -53q10 -28 21 -68t14 -55q2 -14 3 -20l2 -7q1 -6 -2.5 -11.5t-10 -7t-12 2t-7.5 10.5l-1 6q-1 7 -4 22q-2 13 -13 52
q-11 38 -20 65.5t-19 51.5q-9 26 -16 51q-5 23 -12 45q-6 20 -19 39q-5 6 -8 11q-3 -74 -5 -137q-3 -69 -4 -110l-2 -40q0 -7 -5 -11.5t-11.5 -4t-11 5.5t-4.5 11z" />
    <glyph glyph-name="S" unicode="S" horiz-adv-x="293" 
d="M208 649l-28 -2q-21 -2 -31 -14q-13 -15 -22 -35q-9 -19 -9 -43q1 -25 6 -44q6 -21 13 -51q7 -27 21 -57q15 -30 32 -55q18 -27 29 -67q10 -38 18 -83t5 -79q-3 -33 -9 -59q-7 -28 -17 -49q-13 -25 -42 -35q-27 -8 -59 0q-30 8 -45 16q-21 12 -20 31l1 8q0 7 5 11.5
t11.5 4t11 -5.5t4.5 -12l-1 -6q2 -2 4 -3q11 -6 37 -13q23 -6 42 0q16 5 22 18q9 18 15 42q5 24 8 55q3 29 -4 71q-8 43 -18 80q-9 35 -25 58q-17 26 -33 58q-17 33 -24 64q-7 29 -12 49q-7 23 -8 52q0 31 11 57q11 25 27 43q19 22 53 25l28 2q7 0 12 -4t5.5 -10.5t-4 -12
t-10.5 -5.5z" />
    <glyph glyph-name="T" unicode="T" horiz-adv-x="298" 
d="M64 672l12 2q14 2 55 3q40 1 70 3l30 3q7 0 12 -4.5t5.5 -11t-4 -11.5t-11.5 -5l-30 -3q-19 -1 -43 -2l2 -18q3 -27 8 -103t15 -152t21 -145.5t17 -103.5q6 -36 10 -72q4 -37 5 -46l1 -10q0 -7 -4 -12t-10.5 -5.5t-12 4t-5.5 10.5l-1 10l-5 45q-3 36 -9 70
q-6 35 -17.5 104.5t-21.5 146.5t-15 154q-5 75 -8 102l-2 20q-37 -1 -47 -3l-13 -1q-6 -1 -11.5 3t-6.5 10.5t3 12t11 5.5z" />
    <glyph glyph-name="U" unicode="U" horiz-adv-x="337" 
d="M92 678l-1 -13q-2 -13 -4 -75q-3 -63 -5 -139q-1 -75 4 -131t10 -116q4 -57 20 -93q15 -35 33 -51q16 -16 24 -17q9 -2 24 3q12 4 18 22q9 24 15 64q6 43 13 76q7 31 10.5 76.5t-0.5 96.5q-4 53 -6 101t-7 93t-7 78l-1 31q0 7 4.5 12t11 5t11.5 -4.5t5 -10.5l1 -32
q1 -31 7 -76q5 -45 7 -94q2 -48 6 -100q4 -54 0 -102t-11 -81q-7 -31 -13 -73q-6 -44 -16 -71q-12 -33 -38 -42q-23 -7 -39 -4q-17 3 -41 25q-23 22 -41 63q-18 40 -22 102q-4 60 -10 116q-5 58 -4 135q2 76 5 139q2 64 4 77l2 14q0 6 5.5 10.5t12 3.5t10.5 -6.5t3 -11.5z
" />
    <glyph glyph-name="V" unicode="V" horiz-adv-x="362" 
d="M82 700l1 -13q2 -13 9 -110q7 -94 29 -193q22 -100 36 -183q10 -55 18 -88q7 31 15 72q12 57 28 142q16 86 33 147q16 60 21 100q5 41 7 62l1 21q0 6 5.5 10.5t12 4t10.5 -5.5t4 -11l-1 -21q-2 -22 -7 -64t-22 -104q-17 -61 -33 -145q-16 -85 -28 -143t-20 -94l-0.5 -3
t-1 -5l-1.5 -6t-2.5 -6t-4 -5.5t-5 -4t-6.5 -2t-8 0.5q-4 1 -7 3t-4.5 3.5t-3.5 5t-2.5 5t-1.5 5t-2 4.5q-11 34 -25 117q-14 82 -36 181q-23 101 -30 198q-7 96 -8 108l-2 13q-1 7 3.5 12t11 6t11.5 -3t6 -11z" />
    <glyph glyph-name="W" unicode="W" horiz-adv-x="517" 
d="M82 668l4 -22q4 -23 29 -163q23 -134 30 -197q4 39 8 68q10 66 21 104q11 40 15 47q15 32 36 -18l2 -6q5 -27 30 -149q24 -122 39 -180l4 -14q9 53 26 145q34 177 52 245t38 121l21 51q2 6 8.5 9t12.5 0.5t8.5 -8.5t0.5 -13l-21 -51q-20 -51 -37 -117q-18 -67 -51 -243
q-34 -175 -36 -207q-1 -2 0.5 -11.5t-5 -17.5t-19.5 -4q-6 2 -9 5t-4 6t-1 5.5v5v2.5q-3 25 -19 83q-15 59 -40 181l-22 116q-9 -36 -18 -92q-10 -64 -17 -176q0 -4 -0.5 -26t-1.5 -34t-4 -27.5t-9 -20.5t-15 1q-8 4 -10 8t0 6l1 2q0 22 -4.5 78t-10.5 117q-7 61 -31 200
q-24 140 -28 162l-5 23q-1 6 3 11.5t10 7t11.5 -2.5t7.5 -10z" />
    <glyph glyph-name="X" unicode="X" horiz-adv-x="292" 
d="M55 60l6 26q7 27 22 81q16 53 35 145q5 24 11 49q-11 42 -24 87q-40 148 -47 179l-8 31q-1 6 2.5 12t10 7.5t12 -2t7.5 -10.5l7 -31q7 -30 47 -177q5 -17 9 -32q9 35 20 70q28 88 37 128l8 42q2 6 7.5 9.5t12 2.5t10 -7t2.5 -12l-9 -41q-9 -42 -37 -132q-19 -61 -34 -124
q23 -90 40 -164q26 -112 31 -147.5t4 -46.5v-9q0 -7 -5 -11.5t-11.5 -4t-11 5.5t-4.5 12l1 9q0 7 -5 40q-5 34 -30 144q-11 48 -25 103q-17 -84 -32 -134q-15 -53 -21 -79l-6 -26q-2 -7 -7.5 -10.5t-12 -2t-10 7.5t-2.5 12z" />
    <glyph glyph-name="Y" unicode="Y" horiz-adv-x="294" 
d="M81 674l10 -33q9 -34 23 -96q13 -63 20 -114q2 -19 5 -32q14 26 24 75q11 54 22 111q11 61 21 79l9 17q3 5 9 7t12 -1t8 -9.5t-1 -11.5l-9 -17q-7 -14 -18 -69q-11 -58 -22 -113q-11 -57 -30 -87q-2 -4 -5 -8l1 -1l7 -24q7 -27 9 -115q2 -86 -2 -144t-6 -78l-1 -20
q0 -7 -5.5 -11t-12 -3.5t-10.5 5.5t-4 11l1 20q2 22 6 78q4 57 2 142q-2 83 -8 106l-4 12q-10 -2 -17 12q-6 12 -13 65q-6 49 -20 111q-13 61 -22 94l-9 34q-2 6 1 12t9.5 7.5t12.5 -1.5t7 -10z" />
    <glyph glyph-name="Z" unicode="Z" horiz-adv-x="354" 
d="M64 686l16 2q17 2 44 4t54 1q21 -1 30.5 -18t7.5 -41q-3 -42 -27 -129q-23 -85 -28 -122q-5 -38 -13 -90t-13 -80q-5 -27 -7 -55q-2 -30 -7 -63q-4 -30 -8 -42q1 0 1 -1q9 -5 36 -8q30 -4 75 -5q48 -2 58 -4l9 -2q6 -2 9.5 -7.5t2 -12t-7 -10t-11.5 -1.5l-9 2q-8 1 -52 3
q-46 1 -78 5q-34 4 -50 14q-23 15 -14 36q3 6 7 37q5 32 7 61q2 30 7 59q6 28 14 79t13 89q5 39 29 126q22 85 25 123q1 12 -0.5 18t-3 6.5t-4.5 0.5q-24 1 -50 -1t-42 -4l-16 -2q-7 -1 -12 3.5t-6 10.5t3.5 11.5t10.5 6.5z" />
    <glyph glyph-name="a" unicode="a" horiz-adv-x="333" 
d="M75 319h9q4 14 7 29q26 114 35 167q9 55 20 87q11 33 19 44q7 8 13 9.5t10 -4t7 -11.5t5 -15t2.5 -12.5t0.5 -6.5q5 -39 14 -99q11 -61 17 -122q7 -60 18 -134q10 -74 19 -114q9 -41 11 -59q2 -19 1 -28l-1 -8q-1 -6 -6 -10.5t-11.5 -3.5t-11 6t-3.5 12l1 7q1 6 -1 22
q-1 16 -10 55q-9 41 -20 116q-3 24 -6 47h-9q-10 0 -39 -2q-28 -2 -55 -3q-16 -74 -21 -119q-5 -60 -7 -87l-1 -28q0 -7 -5 -11.5t-11.5 -4t-11 5.5t-4.5 11l1 28q2 29 8 89q4 44 19 115h-1q-7 0 -12 4.5t-5 11t4.5 11.5t10.5 5zM118 321q22 0 46 2q30 2 42 2h3q-3 29 -7 57
q-6 59 -16 120q-8 47 -12 81q-9 -28 -16 -73q-9 -55 -36 -169z" />
    <glyph glyph-name="b" unicode="b" horiz-adv-x="332" 
d="M96 374q6 4 13 8q24 14 48 39q23 23 33 60q10 40 10 67q-1 26 -11 44q-10 16 -41 29q-33 13 -47 11q-11 -1 -14 -5q-5 -7 -3 -17q1 -15 7 -77q6 -63 5 -143v-16zM95 332q-1 -44 -2 -83q-2 -63 -5 -113q-3 -51 -4 -70l-2 -14l5 1q16 5 43 15q26 11 48 25q20 13 24 19
q5 9 13 25q7 16 21 44q13 24 14 55q2 28 -13 45q-17 21 -34 31q-15 10 -49.5 16.5t-58.5 3.5zM63 352v1q1 27 1 38q1 78 -5 138q-6 62 -7 78q-2 21 8 37q11 18 38 20q22 2 62 -14q41 -16 57 -42q14 -25 15 -59q0 -32 -11 -76q-13 -45 -41 -74q-20 -21 -41 -36q10 -1 20 -3
q41 -8 61 -21q21 -13 41 -37q23 -27 21 -68q-2 -38 -17 -68q-14 -27 -22 -43q-8 -17 -14 -27q-7 -13 -34 -30q-25 -16 -53 -27q-29 -12 -46 -17l-17 -4q-6 -2 -12 1.5t-8 9.5q-1 3 0 6q-10 6 -9 16l2 18q1 19 4 69t5 112q1 42 2 93v9z" />
    <glyph glyph-name="c" unicode="c" horiz-adv-x="307" 
d="M235 626l-34 4q-28 3 -58 -18t-43 -64q-13 -47 -16 -86q-2 -41 -2 -96q1 -55 2.5 -93.5t6.5 -89.5t14 -102q8 -44 20 -52q14 -10 27 -9q13 0 32 12.5t28 32.5q11 22 12 33l2 13q1 6 6.5 10.5t11.5 3.5t10.5 -6.5t3.5 -11.5l-2 -14q-2 -15 -15 -42t-39.5 -44.5
t-48.5 -18.5q-24 -1 -46 15q-24 16 -34 73q-9 50 -14 103.5t-7 91.5q-1 39 -2 95q0 56 2 98q3 43 18 93q15 53 55 81q39 28 80 24l34 -5q6 0 10.5 -5.5t3.5 -12t-6.5 -10.5t-11.5 -3z" />
    <glyph glyph-name="d" unicode="d" horiz-adv-x="350" 
d="M89 41q9 8 19 14q11 8 18 15t9 12q4 9 11 22q8 13 29 39q18 23 29 53q12 31 19 53t21 53q12 29 21 73q8 42 -5 88q-13 48 -36 90q-23 40 -51 60q-28 21 -42 24q-15 4 -40 3h-7q2 -13 5 -36q4 -36 6 -73.5t2 -85.5t-1 -117q-2 -69 -3 -136q-1 -66 -3 -116zM63 14
q-7 5 -6 13l1 50q2 49 3 116t3 136q1 69 1 116t-2 84t-6 71t-6 43q-3 12 5.5 19.5t16.5 8.5t17 1q29 1 49 -4t53 -29t60 -71q25 -45 39 -96q15 -53 5 -103q-9 -47 -23 -80q-13 -30 -20 -50q-7 -22 -19 -55q-13 -34 -34 -61q-20 -24 -26 -35q-7 -12 -10 -19q-4 -10 -14 -21
q-10 -10 -24 -19q-13 -9 -24 -19l-13 -11q-5 -5 -11.5 -4.5t-10.5 5.5q-5 5 -4 14z" />
    <glyph glyph-name="e" unicode="e" horiz-adv-x="218" 
d="M152 639l-21 1q-17 0 -23 -1q-2 -1 -7 -6t-10 -23q-4 -20 -6 -55q-1 -37 -1 -81q1 -45 -1 -85v-8h3h11q11 0 30 -1l18 -1q6 0 10.5 -5t4.5 -11.5t-5 -11t-12 -4.5l-18 1q-17 1 -28 1h-11h-4v-39q0 -40 1 -73q0 -33 2 -75q2 -39 2 -72q1 -31 0 -44v-13q6 -2 19 -1h31h13
q7 0 11.5 -4.5t4.5 -11t-4.5 -11.5t-11.5 -5h-13h-30q-20 -1 -32 3q-20 7 -20 25q0 7 1 20v42q-1 29 -3 71t-2.5 75.5t-0.5 73.5q0 41 1 81q2 39 1 83q0 44 1 82q2 39 7 62q6 25 18 37q11 13 23 15q9 3 32 2l20 -1q7 0 11.5 -5t4 -11.5t-5.5 -11t-11 -4.5z" />
    <glyph glyph-name="f" unicode="f" horiz-adv-x="246" 
d="M181 354l-26 -1q-25 -1 -39 -3v-3q3 -55 5 -130q2 -74 3 -110.5t1 -60.5v-23q0 -6 -4.5 -11t-11.5 -5t-11.5 5t-4.5 11v23q0 23 -1 59t-3 111t-5 129q-3 55 -11 117q-8 63 -12 102q-4 38 -8 55q-4 19 -3 29q2 20 25 23q11 1 34 5q24 4 40 5l15 2q6 0 11 -4.5t5.5 -11
t-3.5 -11.5t-11 -5l-15 -2q-14 -1 -37 -4q-20 -4 -32 -5q1 -7 3 -15q3 -18 8 -58q4 -38 12 -101q5 -44 8 -84q15 2 41 3l26 1q7 0 11.5 -4.5t5 -11t-4 -11.5t-11.5 -5z" />
    <glyph glyph-name="g" unicode="g" horiz-adv-x="377" 
d="M244 649l-11 3q-8 3 -21 3q-11 0 -38 -14q-25 -13 -37 -47q-14 -39 -28 -104q-14 -64 -23 -132q-10 -66 4 -113q14 -51 36 -110q20 -54 42 -68q25 -17 42 -23t29 -6q8 -1 10 1q5 4 7 8q2 5 7 20q6 17 14 38q8 19 14 40q5 20 4 30q0 4 -1 5q-6 3 -20 4q-17 0 -32 -4
q-16 -3 -22 -6l-7 -2q-6 -2 -12 1t-8 9t1 12t9 8l6 3q8 2 26 7q18 4 40 4q22 -1 34 -8q17 -9 18 -31q1 -16 -6 -40q-6 -23 -14 -44q-8 -20 -13 -36q-6 -18 -10 -26q-5 -8 -13 -16q-11 -10 -33 -9q-17 0 -38 8q-21 7 -50 26q-30 20 -54 84q-22 60 -37 112q-15 54 -5 126
q10 69 24 135t29 108q17 46 53 64q33 18 52 18q17 0 30 -4l10 -3q7 -1 10 -7t1.5 -12.5t-7.5 -9.5t-12 -2z" />
    <glyph glyph-name="h" unicode="h" 
d="M230 660v-22v-97.5t-2 -138.5q-1 -17 -1 -36q2 -3 2 -6q0 -6 -2 -10l-2 -74q0 -62 2 -111q1 -50 3 -87t2 -48v-10q0 -7 -4.5 -11.5t-11 -4.5t-11.5 4.5t-5 10.5v11q0 10 -2 47t-3 87q-2 49 -2 113q1 31 1 63q-11 -1 -35 -3q-39 -3 -63 -3h-11q1 -29 3 -60q4 -78 10 -139
q5 -60 11 -75l7 -18q2 -6 -0.5 -12t-8.5 -8.5t-12.5 0.5t-8.5 9l-7 17q-7 20 -13 84q-6 62 -10 140t-5 136.5t-1 145.5q1 86 0 112v25q0 7 4.5 11.5t11 4.5t11.5 -4.5t5 -11.5v-25q1 -26 0 -112q0 -87 1 -145q0 -20 1 -43h12q23 0 60 3q27 2 39 4q0 15 1 30q2 64 2 138v97
v22q0 6 5 11t11.5 5t11 -5t4.5 -11z" />
    <glyph glyph-name="i" unicode="i" horiz-adv-x="307" 
d="M80 74l18 -1q18 0 53 -4q3 0 7 -1v12v35q-1 18 -6 56q-5 40 -9 93q-5 53 -6.5 95t-3.5 112q-1 72 -1 122v46q-17 -4 -34 -7l-29 -5q-7 -1 -12.5 3t-6.5 10.5t3 12t10 6.5l29 5q29 5 57 10q29 6 36 7h7q6 0 11 -4.5t5.5 -11t-4 -11.5t-11.5 -5h-6q-4 -1 -23 -4v-2v-50
q0 -50 1 -121q2 -70 3 -112q2 -41 6 -93q5 -53 10 -92q5 -40 6 -59v-36v-14q6 0 11 1q18 1 28 2l10 2q7 1 12.5 -3t6 -10.5t-3.5 -12t-10 -6.5l-11 -2q-11 -1 -31 -2q-10 -1 -25 0h-3h-4q-10 1 -23 2q-33 4 -50 4l-18 1q-7 0 -11.5 5t-4 11.5t5 11t11.5 4.5z" />
    <glyph glyph-name="j" unicode="j" 
d="M60 666l8 4q9 3 38 10q29 6 60 10q31 5 38 7l9 2q6 1 11.5 -2t7.5 -9.5t-1.5 -12.5t-9.5 -7l-9 -2q-9 -3 -41 -7l-10 -2q1 -1 1 -3l2 -41q1 -41 2 -116q0 -78 1 -139v-134q0 -71 1 -115q1 -45 1 -74q-1 -31 -5 -53q-5 -21 -11 -34q-8 -14 -26 -24t-31 -11l-9 -1
q-7 0 -12 4t-5.5 10.5t4 11.5t10.5 6l9 1q6 0 18 7q11 6 14 11q4 8 7 26q4 18 5 46q0 29 -1 73q-1 45 -1 116v134q-1 61 -1 139q-1 75 -2 115l-2 40q-9 -2 -17 -4q-26 -5 -33 -8l-8 -3q-6 -3 -12 0t-8.5 9t0 12t8.5 8z" />
    <glyph glyph-name="k" unicode="k" horiz-adv-x="336" 
d="M82 677l1 -24q2 -26 4 -107q2 -55 4 -114l8 13q30 47 63 106t50 95q17 38 25 48l6 8q4 5 11 6t12 -3t6 -10.5t-3 -11.5l-7 -9q-5 -6 -21 -41q-17 -38 -51 -98q-23 -42 -46 -78q9 -3 11 -12l7 -35q7 -33 28 -88q21 -56 43 -112t31 -74q10 -19 16 -31l5 -12q3 -6 1 -12
t-8 -9t-12.5 -0.5t-8.5 8.5l-6 11q-6 12 -15 31q-10 19 -33 76q-22 56 -43 113t-29 93l-5 23l-30 -46q-1 -2 -3 -4q2 -88 4 -144t4 -111q3 -54 3 -71l1 -15q1 -7 -3.5 -12t-11 -5.5t-11.5 4t-6 11.5v16q-1 17 -4 71q-2 54 -4 111q-2 56 -4 144q-3 88 -6 169q-2 81 -4 106
l-1 25q0 6 4.5 11t11 5.5t11.5 -4t5 -11.5z" />
    <glyph glyph-name="l" unicode="l" horiz-adv-x="316" 
d="M81 676l7 -17q9 -20 19 -99q11 -76 20 -167t14 -161t6 -96v-50q0 -25 -1 -37q0 -2 2 -3q6 -5 28 -9q27 -5 52 -10l26 -5q6 -2 9.5 -7.5t2.5 -12t-7 -10t-12 -2.5l-25 6q-26 5 -51 10q-29 5 -41 13q-17 11 -16 32q1 12 1 35v50q-1 25 -6 94t-14 159.5t-19 166.5
q-11 74 -17 90l-8 18q-2 6 0.5 12t8.5 8.5t12 0t9 -8.5z" />
    <glyph glyph-name="m" unicode="m" horiz-adv-x="432" 
d="M50 43l2 31q3 31 8 85t11 110q7 55 12 118q6 64 13 122t8 89q1 33 1 40q1 16 17 11t17 -10q3 -13 15 -92q11 -76 37 -162q23 -76 32 -127q8 41 22 95q20 78 26 124q7 48 23 111.5t19 72.5q14 35 33 -28q4 -14 4 -17q3 -48 9 -117t8 -112q2 -42 6 -130q5 -88 6 -126l3 -57
v-19q0 -6 -4.5 -11t-11 -5t-11.5 4.5t-5 10.5v19q-1 19 -3 56q-1 39 -5.5 126.5t-6.5 130.5q-2 42 -8 111q-3 38 -5 71q-14 -54 -19 -95q-7 -49 -27 -128q-20 -78 -29 -128t-10 -60q0 -1 -0.5 -3t-2.5 -6.5t-5 -7t-8 -2.5t-11 5t-7.5 9t-1 9l0.5 5q-1 18 -9 71
q-7 53 -32 139q-21 68 -33 132v-2q-7 -58 -13 -122q-5 -63 -12 -119q-6 -55 -11.5 -108.5t-7.5 -84.5l-2 -32q-1 -6 -6 -10.5t-11.5 -4t-10.5 5.5t-4 12z" />
    <glyph glyph-name="n" unicode="n" horiz-adv-x="372" 
d="M50 75l4 38q4 39 8.5 95.5t6.5 133.5q1 78 3 144q1 66 -1 108q-1 43 -2 59q0 1 -1 2t-2 4t-0.5 5.5t4 6t10.5 5.5q13 4 19 -2t5 -15l-1 -8q3 -21 19 -77q16 -57 31 -111q16 -54 23 -104q7 -49 21 -105q13 -55 32 -102q9 -21 16 -39q3 50 10 92q8 50 20 138q13 86 14 129
t1 100v79q1 21 0 30v9q0 7 4.5 11.5t11 5t11.5 -4t5 -11.5v-9q1 -9 0 -32v-78q0 -58 -1 -101q-1 -44 -14 -133q-13 -88 -21 -138q-7 -49 -11 -110q-2 -42 -15 -64q-10 -17 -22 2q-5 9 -13 39q-6 27 -25 73q-20 49 -35 107q-14 57 -21 107q-6 48 -21 100q-10 32 -19 65v-34
q-2 -67 -3 -144q-2 -77 -6.5 -134.5t-8.5 -96.5l-4 -39q-1 -6 -6 -10.5t-11.5 -3.5t-11 6t-3.5 12z" />
    <glyph glyph-name="o" unicode="o" horiz-adv-x="353" 
d="M82 496q7 -5 7 -13l-2 -33q-1 -32 -2 -103q0 -71 6 -133q6 -60 25 -107q20 -47 43 -73q20 -21 37 -17q18 5 22 14q6 18 27 71q20 51 25 144q4 94 -5.5 158t-30.5 126q-20 59 -55 85q-27 21 -37 20q-11 -6 -33 -43q-23 -40 -25 -63q-2 -14 -2 -33zM54 390q-1 3 -1 4v15
q-1 15 -2.5 55t1.5 68q3 31 29 76q28 47 47 56q15 8 31.5 1t39.5 -24q42 -33 65 -101q23 -64 32.5 -131t4.5 -165q-4 -98 -26 -154q-21 -52 -27 -70q-10 -25 -44 -34q-36 -9 -68 27q-28 30 -49 82q-22 51 -28 116q-6 63 -6 136q1 24 1 43z" />
    <glyph glyph-name="p" unicode="p" horiz-adv-x="263" 
d="M107 356q10 7 17 17q14 18 28 40q14 20 22.5 54.5t6.5 56t-14 46.5q-11 26 -32 45q-19 17 -33 17q2 -11 4 -30q2 -25 4 -54t-1 -107q-2 -42 -2 -85zM81 44l1 15q1 15 -2 80q-2 67 -4 145v18q-6 -4 -13 -3t-10.5 6.5t-2 12t6.5 10.5l8 5q3 3 10 6q0 52 2 103q3 77 1 104
q-2 28 -4 53q-3 25 -4 35q-3 15 8 22t24 8q27 0 54 -25q26 -24 41 -55q13 -31 15.5 -57.5t-7.5 -66.5t-26 -65q-15 -22 -29 -41q-17 -22 -41 -34h-2q1 -18 1 -35q2 -78 4 -144q3 -67 2 -83l-1 -16q0 -6 -5 -10.5t-11.5 -4.5t-11 5t-4.5 12z" />
    <glyph glyph-name="q" unicode="q" horiz-adv-x="370" 
d="M200 130v-26q0 -3 1 -7q13 14 23 40q15 37 34 88q18 49 25 95.5t4 130.5q-4 83 -19 126t-51 81q-29 32 -48 22q-25 -14 -45 -46q-20 -33 -28 -87q-8 -57 -12 -116q-4 -58 0 -114q4 -54 8 -116q3 -5 2 -9v-15l2 -25q1 -10 5 -21q8 -23 29 -40q20 -16 31 -15q4 0 8 2
q0 13 -1 26v26q0 6 5 11t11.5 5t11 -5t4.5 -11zM64 148q-3 13 -2 25v4l-1 16q-4 65 -9 122q-4 58 0 118t13 119q9 60 32 99q24 39 57 57q41 22 87 -28q40 -44 57 -92t21 -136q4 -87 -3.5 -136.5t-27.5 -101.5q-19 -51 -34 -89q-16 -42 -43 -61q-4 -3 -8 -5q1 -5 2 -9
q3 -29 15 -57q10 -23 17 -33l7 7q5 5 11.5 4.5t11 -5.5t4.5 -11.5t-5 -10.5l-10 -9q-9 -8 -20.5 -7.5t-20.5 8.5q-11 12 -25 45q-13 32 -17 64q-5 -1 -10 -1q-23 -1 -53 22q-26 21 -38 50q-7 5 -7 13z" />
    <glyph glyph-name="r" unicode="r" horiz-adv-x="287" 
d="M94 398q7 3 17 8q15 6 24 28q12 26 26 62q12 32 2 68q-12 37 -26 54q-13 16 -27 20q-8 3 -12 3q-1 -3 -1 -8q0 -15 1 -46q1 -32 -1 -85q-1 -43 -3 -104zM50 62l2 41q1 40 4 109.5t5.5 153.5t3.5 136q2 53 1 84q-1 32 -1 47q0 24 14 34q14 11 41 2q23 -8 42 -30
q18 -22 31 -66q14 -47 -2 -88q-14 -37 -26 -64q-15 -32 -40 -44q-5 -3 -10 -5q6 -7 12 -17q16 -23 23 -48q7 -22 14 -46q5 -23 14 -47q10 -25 19 -53q10 -28 21 -68t14 -55q2 -14 3 -20l2 -7q1 -6 -2.5 -11.5t-10 -7t-12 2t-7.5 10.5l-1 6q-1 7 -4 22q-2 13 -13 52
q-11 38 -20 65.5t-19 51.5q-9 26 -16 51q-5 23 -12 45q-6 20 -19 39q-5 6 -8 11q-3 -74 -5 -137q-3 -69 -4 -110l-2 -40q0 -7 -5 -11.5t-11.5 -4t-11 5.5t-4.5 11z" />
    <glyph glyph-name="s" unicode="s" horiz-adv-x="293" 
d="M208 649l-28 -2q-21 -2 -31 -14q-13 -15 -22 -35q-9 -19 -9 -43q1 -25 6 -44q6 -21 13 -51q7 -27 21 -57q15 -30 32 -55q18 -27 29 -67q10 -38 18 -83t5 -79q-3 -33 -9 -59q-7 -28 -17 -49q-13 -25 -42 -35q-27 -8 -59 0q-30 8 -45 16q-21 12 -20 31l1 8q0 7 5 11.5
t11.5 4t11 -5.5t4.5 -12l-1 -6q2 -2 4 -3q11 -6 37 -13q23 -6 42 0q16 5 22 18q9 18 15 42q5 24 8 55q3 29 -4 71q-8 43 -18 80q-9 35 -25 58q-17 26 -33 58q-17 33 -24 64q-7 29 -12 49q-7 23 -8 52q0 31 11 57q11 25 27 43q19 22 53 25l28 2q7 0 12 -4t5.5 -10.5t-4 -12
t-10.5 -5.5z" />
    <glyph glyph-name="t" unicode="t" horiz-adv-x="298" 
d="M64 672l12 2q14 2 55 3q40 1 70 3l30 3q7 0 12 -4.5t5.5 -11t-4 -11.5t-11.5 -5l-30 -3q-19 -1 -43 -2l2 -18q3 -27 8 -103t15 -152t21 -145.5t17 -103.5q6 -36 10 -72q4 -37 5 -46l1 -10q0 -7 -4 -12t-10.5 -5.5t-12 4t-5.5 10.5l-1 10l-5 45q-3 36 -9 70
q-6 35 -17.5 104.5t-21.5 146.5t-15 154q-5 75 -8 102l-2 20q-37 -1 -47 -3l-13 -1q-6 -1 -11.5 3t-6.5 10.5t3 12t11 5.5z" />
    <glyph glyph-name="u" unicode="u" horiz-adv-x="337" 
d="M92 678l-1 -13q-2 -13 -4 -75q-3 -63 -5 -139q-1 -75 4 -131t10 -116q4 -57 20 -93q15 -35 33 -51q16 -16 24 -17q9 -2 24 3q12 4 18 22q9 24 15 64q6 43 13 76q7 31 10.5 76.5t-0.5 96.5q-4 53 -6 101t-7 93t-7 78l-1 31q0 7 4.5 12t11 5t11.5 -4.5t5 -10.5l1 -32
q1 -31 7 -76q5 -45 7 -94q2 -48 6 -100q4 -54 0 -102t-11 -81q-7 -31 -13 -73q-6 -44 -16 -71q-12 -33 -38 -42q-23 -7 -39 -4q-17 3 -41 25q-23 22 -41 63q-18 40 -22 102q-4 60 -10 116q-5 58 -4 135q2 76 5 139q2 64 4 77l2 14q0 6 5.5 10.5t12 3.5t10.5 -6.5t3 -11.5z
" />
    <glyph glyph-name="v" unicode="v" horiz-adv-x="362" 
d="M82 700l1 -13q2 -13 9 -110q7 -94 29 -193q22 -100 36 -183q10 -55 18 -88q7 31 15 72q12 57 28 142q16 86 33 147q16 60 21 100q5 41 7 62l1 21q0 6 5.5 10.5t12 4t10.5 -5.5t4 -11l-1 -21q-2 -22 -7 -64t-22 -104q-17 -61 -33 -145q-16 -85 -28 -143t-20 -94l-0.5 -3
t-1 -5l-1.5 -6t-2.5 -6t-4 -5.5t-5 -4t-6.5 -2t-8 0.5q-4 1 -7 3t-4.5 3.5t-3.5 5t-2.5 5t-1.5 5t-2 4.5q-11 34 -25 117q-14 82 -36 181q-23 101 -30 198q-7 96 -8 108l-2 13q-1 7 3.5 12t11 6t11.5 -3t6 -11z" />
    <glyph glyph-name="w" unicode="w" horiz-adv-x="517" 
d="M82 668l4 -22q4 -23 29 -163q23 -134 30 -197q4 39 8 68q10 66 21 104q11 40 15 47q15 32 36 -18l2 -6q5 -27 30 -149q24 -122 39 -180l4 -14q9 53 26 145q34 177 52 245t38 121l21 51q2 6 8.5 9t12.5 0.5t8.5 -8.5t0.5 -13l-21 -51q-20 -51 -37 -117q-18 -67 -51 -243
q-34 -175 -36 -207q-1 -2 0.5 -11.5t-5 -17.5t-19.5 -4q-6 2 -9 5t-4 6t-1 5.5v5v2.5q-3 25 -19 83q-15 59 -40 181l-22 116q-9 -36 -18 -92q-10 -64 -17 -176q0 -4 -0.5 -26t-1.5 -34t-4 -27.5t-9 -20.5t-15 1q-8 4 -10 8t0 6l1 2q0 22 -4.5 78t-10.5 117q-7 61 -31 200
q-24 140 -28 162l-5 23q-1 6 3 11.5t10 7t11.5 -2.5t7.5 -10z" />
    <glyph glyph-name="x" unicode="x" horiz-adv-x="292" 
d="M55 60l6 26q7 27 22 81q16 53 35 145q5 24 11 49q-11 42 -24 87q-40 148 -47 179l-8 31q-1 6 2.5 12t10 7.5t12 -2t7.5 -10.5l7 -31q7 -30 47 -177q5 -17 9 -32q9 35 20 70q28 88 37 128l8 42q2 6 7.5 9.5t12 2.5t10 -7t2.5 -12l-9 -41q-9 -42 -37 -132q-19 -61 -34 -124
q23 -90 40 -164q26 -112 31 -147.5t4 -46.5v-9q0 -7 -5 -11.5t-11.5 -4t-11 5.5t-4.5 12l1 9q0 7 -5 40q-5 34 -30 144q-11 48 -25 103q-17 -84 -32 -134q-15 -53 -21 -79l-6 -26q-2 -7 -7.5 -10.5t-12 -2t-10 7.5t-2.5 12z" />
    <glyph glyph-name="y" unicode="y" horiz-adv-x="294" 
d="M81 674l10 -33q9 -34 23 -96q13 -63 20 -114q2 -19 5 -32q14 26 24 75q11 54 22 111q11 61 21 79l9 17q3 5 9 7t12 -1t8 -9.5t-1 -11.5l-9 -17q-7 -14 -18 -69q-11 -58 -22 -113q-11 -57 -30 -87q-2 -4 -5 -8l1 -1l7 -24q7 -27 9 -115q2 -86 -2 -144t-6 -78l-1 -20
q0 -7 -5.5 -11t-12 -3.5t-10.5 5.5t-4 11l1 20q2 22 6 78q4 57 2 142q-2 83 -8 106l-4 12q-10 -2 -17 12q-6 12 -13 65q-6 49 -20 111q-13 61 -22 94l-9 34q-2 6 1 12t9.5 7.5t12.5 -1.5t7 -10z" />
    <glyph glyph-name="z" unicode="z" horiz-adv-x="354" 
d="M64 686l16 2q17 2 44 4t54 1q21 -1 30.5 -18t7.5 -41q-3 -42 -27 -129q-23 -85 -28 -122q-5 -38 -13 -90t-13 -80q-5 -27 -7 -55q-2 -30 -7 -63q-4 -30 -8 -42q1 0 1 -1q9 -5 36 -8q30 -4 75 -5q48 -2 58 -4l9 -2q6 -2 9.5 -7.5t2 -12t-7 -10t-11.5 -1.5l-9 2q-8 1 -52 3
q-46 1 -78 5q-34 4 -50 14q-23 15 -14 36q3 6 7 37q5 32 7 61q2 30 7 59q6 28 14 79t13 89q5 39 29 126q22 85 25 123q1 12 -0.5 18t-3 6.5t-4.5 0.5q-24 1 -50 -1t-42 -4l-16 -2q-7 -1 -12 3.5t-6 10.5t3.5 11.5t10.5 6.5z" />
    <glyph glyph-name="quoteleft" unicode="&#x2018;" horiz-adv-x="200" 
d="M60 540l-5 19q-4 21 -5 34q-1 15 5 40q7 29 30 43q19 11 32 16l12 4q6 3 12 0t8.5 -9t-0.5 -12t-9 -8l-11 -5q-11 -4 -27 -14q-12 -7 -16 -23q-5 -20 -4 -30q1 -11 5 -29l4 -20q1 -6 -2.5 -11.5t-10 -7t-12 2.5t-6.5 10z" />
    <glyph glyph-name="quoteright" unicode="&#x2019;" horiz-adv-x="157" 
d="M51 560l4 11q3 11 13 40q9 25 7 40q0 4 -1 7l-5 1q-7 2 -10 7.5t-1.5 12t7 10t11.5 1.5l9 -2q19 -4 22 -33q3 -22 -8 -55q-10 -28 -14 -39l-4 -11q-2 -7 -8 -9.5t-12 -0.5t-9 8t-1 12z" />
    <glyph glyph-name="quotedblleft" unicode="&#x201c;" horiz-adv-x="278" 
d="M224 659l-17 -18q-14 -14 -24 -47q-9 -27 0 -37l15 -16q5 -5 4.5 -11.5t-5 -11t-11 -4.5t-11.5 5l-15 16q-22 23 -8 68q13 41 32 61l17 17q5 5 11.5 5t11.5 -4.5t5 -11.5t-5 -11zM102 667l-9 -16q-7 -12 -10 -43q-2 -31 1 -44l3 -15q2 -7 -1.5 -12.5t-10 -7t-12 2
t-7.5 9.5l-3 15q-5 18 -1 55q3 37 13 56l9 16q3 5 9.5 7t12 -1t7.5 -9.5t-1 -12.5z" />
    <glyph glyph-name="quotedblright" unicode="&#x201d;" horiz-adv-x="295" 
d="M173 538l9 12q7 10 19 54q12 45 12 52v10q0 7 5 11.5t11.5 4.5t11 -4.5t4.5 -11.5v-10q0 -12 -13 -60q-14 -50 -24 -65l-9 -12q-4 -5 -10.5 -6.5t-12 2.5t-6.5 10.5t3 12.5zM53 537l8 12q9 13 31 32q16 15 23 41q6 25 3 32l-5 11q-2 6 0.5 12t8.5 9t12 0.5t9 -8.5l4 -12
q7 -16 -1 -52q-9 -35 -33 -56q-19 -17 -26 -28l-8 -11q-4 -5 -10.5 -6.5t-12 2.5t-6.5 10.5t3 11.5z" />
    <glyph glyph-name="NULL" horiz-adv-x="0" 
 />
  </font>
</defs>
</svg>
