<?xml version="1.0" encoding="UTF-8"?>
<!DOCTYPE svg PUBLIC "-//W3C//DTD SVG 1.1//EN" "http://www.w3.org/Graphics/SVG/1.1/DTD/svg11.dtd">
<!-- Creator: CorelDRAW 2019 (64-Bit) -->
<svg xmlns="http://www.w3.org/2000/svg" xml:space="preserve" width="170px" height="85px" version="1.1" style="shape-rendering:geometricPrecision; text-rendering:geometricPrecision; image-rendering:optimizeQuality; fill-rule:evenodd; clip-rule:evenodd"
viewBox="0 0 170 85"
 xmlns:xlink="http://www.w3.org/1999/xlink"
 xmlns:xodm="http://www.corel.com/coreldraw/odm/2003">
 <defs>
  <style type="text/css">
   <![CDATA[
    .str0 {stroke:#FEFEFE;stroke-width:0.28;stroke-miterlimit:22.9256}
    .fil0 {fill:none}
    .fil3 {fill:#B72233}
    .fil4 {fill:#EFE96F}
    .fil2 {fill:#044F49}
    .fil5 {fill:#1F1B20}
    .fil1 {fill:#044F49;fill-rule:nonzero}
   ]]>
  </style>
 </defs>
 <g id="Слой_x0020_1">
  <metadata id="CorelCorpID_0Corel-Layer"/>
  <rect class="fil0 str0" width="170" height="85"/>
  <g id="_1013792192">
   <path class="fil1" d="M25.82 32.17c0.2,-0.02 0.46,0.02 0.79,0.12 0.33,0.1 0.64,0.23 0.93,0.39 0.28,0.16 0.49,0.33 0.62,0.52 0.14,0.19 0.1,0.38 -0.11,0.56 -0.44,0.34 -0.88,0.88 -1.33,1.61 -0.44,0.74 -0.84,1.5 -1.19,2.28 -0.36,0.78 -0.63,1.48 -0.83,2.09 -0.2,0.6 -0.26,0.95 -0.19,1.03 -0.09,0.06 -0.25,0.06 -0.47,0 -0.22,-0.06 -0.44,-0.18 -0.68,-0.36 -0.24,-0.18 -0.47,-0.4 -0.7,-0.66 -0.23,-0.26 -0.38,-0.55 -0.46,-0.87 -0.07,-0.26 -0.1,-0.56 -0.07,-0.91 0.03,-0.35 0.1,-0.72 0.2,-1.1 0.11,-0.38 0.24,-0.77 0.4,-1.17 0.16,-0.4 0.35,-0.77 0.56,-1.13 -0.48,-0.18 -1.03,-0.17 -1.67,0.04 -0.64,0.21 -1.37,0.78 -2.18,1.72 -0.65,0.76 -1.26,1.66 -1.83,2.7 -0.57,1.04 -1.05,2.11 -1.45,3.22 -0.4,1.11 -0.71,2.21 -0.92,3.3 -0.2,1.09 -0.28,2.06 -0.21,2.91 0.07,0.85 0.29,1.52 0.66,2.03 0.37,0.51 0.93,0.75 1.69,0.71 0.61,-0.02 1.13,-0.21 1.57,-0.57 0.44,-0.36 0.8,-0.8 1.09,-1.33 0.28,-0.53 0.49,-1.11 0.62,-1.74 0.14,-0.63 0.2,-1.25 0.2,-1.85 -0.7,-0.3 -1.35,-0.47 -1.94,-0.52 -0.59,-0.05 -1.15,0.09 -1.68,0.43 -0.09,-0.32 -0.14,-0.65 -0.14,-1 0,-0.35 0.04,-0.68 0.11,-0.99 0.08,-0.31 0.19,-0.59 0.33,-0.85 0.14,-0.26 0.3,-0.46 0.47,-0.6 0.21,-0.18 0.51,-0.25 0.9,-0.2 0.39,0.05 0.82,0.18 1.3,0.38 0.47,0.2 0.98,0.45 1.51,0.76 0.53,0.31 1.06,0.64 1.58,0.99 0.52,0.35 1.02,0.71 1.48,1.06 0.47,0.36 0.87,0.69 1.22,0.99 0.21,0.18 0.29,0.37 0.24,0.57 -0.05,0.2 -0.16,0.39 -0.33,0.57 -0.17,0.18 -0.38,0.33 -0.61,0.44 -0.24,0.11 -0.44,0.16 -0.62,0.16 -0.26,-0.16 -0.51,-0.31 -0.74,-0.46 -0.23,-0.15 -0.46,-0.3 -0.71,-0.44 -0.1,1.04 -0.35,1.94 -0.76,2.7 -0.4,0.76 -0.88,1.38 -1.44,1.88 -0.55,0.49 -1.13,0.86 -1.75,1.11 -0.62,0.24 -1.18,0.37 -1.7,0.37 -1.48,0 -2.68,-0.3 -3.59,-0.89 -0.91,-0.59 -1.58,-1.37 -2,-2.35 -0.41,-0.98 -0.61,-2.09 -0.6,-3.34 0.02,-1.25 0.22,-2.53 0.59,-3.84 0.37,-1.31 0.89,-2.6 1.57,-3.86 0.67,-1.27 1.45,-2.41 2.34,-3.41 0.88,-0.99 1.85,-1.8 2.91,-2.42 1.05,-0.62 2.14,-0.95 3.26,-0.99 0.46,-0.02 0.9,0.03 1.33,0.16 0.42,0.13 0.83,0.37 1.21,0.71 0.21,-0.2 0.42,-0.36 0.63,-0.48 0.21,-0.12 0.4,-0.18 0.59,-0.18zm11.64 14.17c0.21,0.08 0.36,0.24 0.46,0.47 0.09,0.23 0.06,0.49 -0.09,0.79 -0.55,0.96 -1.17,1.79 -1.87,2.47 -0.69,0.69 -1.48,1.06 -2.38,1.1 -0.89,0 -1.56,-0.24 -2.01,-0.72 -0.45,-0.48 -0.72,-1.07 -0.81,-1.77 -0.15,0.3 -0.33,0.61 -0.53,0.92 -0.2,0.31 -0.43,0.58 -0.68,0.82 -0.26,0.24 -0.54,0.43 -0.84,0.58 -0.31,0.15 -0.64,0.21 -1,0.17 -0.67,-0.06 -1.2,-0.24 -1.6,-0.53 -0.4,-0.29 -0.69,-0.66 -0.87,-1.1 -0.18,-0.45 -0.28,-0.95 -0.3,-1.5 -0.02,-0.55 0.02,-1.12 0.12,-1.7 0.11,-0.7 0.31,-1.41 0.61,-2.14 0.29,-0.73 0.67,-1.39 1.12,-1.99 0.46,-0.6 1,-1.09 1.62,-1.46 0.61,-0.37 1.31,-0.53 2.09,-0.49 0.4,0.02 0.78,0.11 1.13,0.27 0.35,0.16 0.65,0.4 0.9,0.72 0.04,-0.3 -0.01,-0.5 -0.15,-0.6 0.06,-0.2 0.27,-0.34 0.63,-0.41 0.36,-0.07 0.74,-0.04 1.14,0.09 0.4,0.13 0.75,0.38 1.06,0.74 0.3,0.36 0.42,0.85 0.34,1.47 -0.02,0.1 -0.04,0.21 -0.06,0.33 -0.02,0.12 -0.04,0.26 -0.08,0.42l-1.29 3.92c-0.15,0.52 -0.22,0.9 -0.21,1.14 0.01,0.24 0.08,0.38 0.21,0.42 0.14,0.06 0.31,0.04 0.52,-0.07 0.21,-0.11 0.43,-0.27 0.65,-0.48 0.23,-0.21 0.45,-0.45 0.67,-0.71 0.22,-0.26 0.41,-0.51 0.56,-0.75 0.09,-0.16 0.22,-0.28 0.38,-0.37 0.17,-0.09 0.35,-0.11 0.56,-0.05zm-5.28 -3.89c-0.13,-0.24 -0.41,-0.35 -0.85,-0.33 -0.44,0.02 -0.81,0.16 -1.11,0.42 -0.44,0.4 -0.83,0.95 -1.16,1.66 -0.33,0.71 -0.59,1.42 -0.78,2.14 -0.19,0.76 -0.29,1.44 -0.29,2.03 0,0.59 0.14,0.91 0.4,0.97 0.19,0.08 0.43,-0.04 0.71,-0.37 0.29,-0.33 0.58,-0.73 0.86,-1.2 0.29,-0.47 0.55,-0.94 0.8,-1.41 0.25,-0.47 0.42,-0.82 0.51,-1.04l0.91 -2.87zm3.68 5.21c0.16,-0.2 0.31,-0.41 0.46,-0.63 0.15,-0.22 0.3,-0.45 0.46,-0.69 0.28,-0.46 0.56,-0.94 0.82,-1.43 0.27,-0.5 0.51,-0.98 0.72,-1.44 0.21,-0.46 0.38,-0.88 0.52,-1.25 0.15,-0.37 0.24,-0.65 0.27,-0.85 -0.51,-0.28 -0.89,-0.65 -1.14,-1.11 -0.2,-0.36 -0.31,-0.73 -0.32,-1.12 -0.01,-0.39 0.05,-0.75 0.2,-1.08 0.14,-0.33 0.36,-0.61 0.65,-0.83 0.3,-0.22 0.64,-0.33 1.04,-0.33 0.52,0 0.88,0.17 1.09,0.5 0.21,0.33 0.34,0.69 0.4,1.09 0.05,0.4 0.06,0.77 0.02,1.1 -0.03,0.33 -0.05,0.5 -0.05,0.52 0.21,0.02 0.44,0.03 0.7,0.04 0.25,0.01 0.5,0.04 0.75,0.08 0.31,0.02 0.59,0.09 0.84,0.21 0.26,0.12 0.48,0.27 0.67,0.46 0.19,0.19 0.33,0.43 0.42,0.71 0.08,0.28 0.11,0.59 0.07,0.93 -0.02,0.2 -0.08,0.45 -0.17,0.75l-1.26 3.95c-0.15,0.5 -0.22,0.87 -0.21,1.11 0.01,0.24 0.08,0.38 0.21,0.42 0.14,0.06 0.31,0.04 0.52,-0.07 0.2,-0.11 0.42,-0.27 0.65,-0.48 0.23,-0.21 0.45,-0.45 0.66,-0.71 0.21,-0.26 0.39,-0.51 0.54,-0.75 0.11,-0.16 0.25,-0.28 0.41,-0.37 0.16,-0.09 0.34,-0.11 0.53,-0.05 0.21,0.08 0.36,0.24 0.46,0.47 0.09,0.23 0.06,0.49 -0.09,0.79 -0.53,0.96 -1.15,1.79 -1.85,2.47 -0.71,0.69 -1.5,1.06 -2.37,1.1 -0.72,0 -1.29,-0.16 -1.71,-0.47 -0.42,-0.31 -0.72,-0.71 -0.91,-1.21 -0.19,-0.5 -0.27,-1.04 -0.25,-1.63 0.03,-0.59 0.13,-1.18 0.3,-1.76l1.26 -3.98c-0.08,-0.04 -0.17,-0.07 -0.29,-0.09 -0.11,-0.02 -0.2,-0.03 -0.25,-0.03 -0.25,0.64 -0.55,1.33 -0.89,2.08 -0.34,0.75 -0.72,1.5 -1.14,2.26 -0.23,0.42 -0.46,0.83 -0.7,1.23 -0.23,0.4 -0.49,0.78 -0.75,1.14 -0.17,0.22 -0.36,0.33 -0.57,0.32 -0.21,-0.01 -0.4,-0.08 -0.56,-0.21 -0.16,-0.13 -0.27,-0.3 -0.33,-0.51 -0.05,-0.21 0,-0.43 0.17,-0.65zm3.77 -7.61c0.02,-1 -0.03,-1.63 -0.14,-1.89 -0.12,-0.26 -0.22,-0.31 -0.3,-0.15 -0.09,0.16 -0.12,0.45 -0.09,0.87 0.03,0.42 0.2,0.81 0.53,1.17zm18.22 6.29c0.21,0.08 0.36,0.24 0.46,0.47 0.09,0.23 0.06,0.49 -0.09,0.79 -0.53,0.96 -1.15,1.79 -1.85,2.47 -0.7,0.69 -1.49,1.06 -2.37,1.1 -0.91,0 -1.59,-0.24 -2.02,-0.71 -0.44,-0.47 -0.72,-1.05 -0.83,-1.75 -0.15,0.3 -0.33,0.61 -0.53,0.92 -0.2,0.3 -0.43,0.58 -0.68,0.82 -0.26,0.24 -0.53,0.43 -0.83,0.57 -0.29,0.14 -0.62,0.19 -0.98,0.15 -0.67,-0.06 -1.2,-0.24 -1.6,-0.53 -0.4,-0.29 -0.69,-0.66 -0.87,-1.1 -0.18,-0.45 -0.28,-0.95 -0.3,-1.5 -0.02,-0.55 0.02,-1.12 0.11,-1.7 0.12,-0.7 0.32,-1.41 0.62,-2.14 0.29,-0.73 0.67,-1.39 1.12,-1.99 0.46,-0.6 1,-1.09 1.62,-1.46 0.61,-0.37 1.3,-0.53 2.06,-0.49 0.52,0.02 0.9,0.1 1.16,0.25 0.25,0.15 0.56,0.4 0.93,0.74l2.22 -6.98c0.04,-0.36 -0.01,-0.59 -0.14,-0.69 0.03,-0.2 0.23,-0.34 0.6,-0.41 0.36,-0.07 0.74,-0.04 1.15,0.09 0.41,0.13 0.77,0.38 1.07,0.74 0.3,0.36 0.42,0.85 0.34,1.46 -0.02,0.1 -0.04,0.21 -0.05,0.33 -0.02,0.12 -0.05,0.25 -0.09,0.39l-3.56 11.03c-0.16,0.52 -0.22,0.9 -0.2,1.14 0.01,0.24 0.09,0.38 0.22,0.42 0.14,0.06 0.31,0.04 0.52,-0.07 0.21,-0.11 0.42,-0.27 0.65,-0.48 0.23,-0.21 0.45,-0.45 0.66,-0.71 0.21,-0.26 0.39,-0.51 0.54,-0.75 0.1,-0.16 0.22,-0.28 0.39,-0.37 0.16,-0.09 0.34,-0.11 0.55,-0.05zm-5.27 -3.89c-0.06,-0.12 -0.17,-0.21 -0.33,-0.26 -0.16,-0.05 -0.34,-0.07 -0.53,-0.06 -0.19,0.01 -0.38,0.05 -0.58,0.12 -0.2,0.07 -0.37,0.17 -0.5,0.29 -0.44,0.4 -0.83,0.95 -1.16,1.66 -0.33,0.71 -0.59,1.42 -0.78,2.14 -0.19,0.76 -0.29,1.44 -0.29,2.03 0,0.59 0.14,0.91 0.4,0.97 0.17,0.08 0.4,-0.03 0.67,-0.34 0.28,-0.31 0.56,-0.69 0.84,-1.13 0.29,-0.44 0.55,-0.89 0.79,-1.36 0.23,-0.47 0.41,-0.83 0.52,-1.07l0.95 -2.99zm13.77 3.89c0.21,0.08 0.36,0.24 0.46,0.47 0.09,0.23 0.06,0.49 -0.09,0.79 -0.53,1.02 -1.24,1.87 -2.12,2.55 -0.89,0.68 -1.91,1.02 -3.07,1.02 -1.31,0 -2.32,-0.27 -3.02,-0.8 -0.71,-0.53 -1.18,-1.19 -1.41,-2 -0.24,-0.81 -0.27,-1.69 -0.08,-2.63 0.19,-0.93 0.53,-1.81 1.02,-2.62 0.48,-0.81 1.08,-1.48 1.79,-2.02 0.72,-0.54 1.49,-0.82 2.33,-0.84 0.55,-0.02 1.09,0.06 1.62,0.24 0.54,0.18 0.94,0.46 1.2,0.84 0.27,0.44 0.32,0.95 0.17,1.54 -0.15,0.59 -0.42,1.17 -0.8,1.73 -0.55,0.81 -1.17,1.43 -1.86,1.85 -0.7,0.42 -1.52,0.65 -2.47,0.69 -0.04,0.52 0.04,0.95 0.24,1.29 0.2,0.34 0.53,0.55 0.99,0.63 0.43,0.08 0.86,0.07 1.26,-0.03 0.41,-0.1 0.8,-0.26 1.16,-0.48 0.36,-0.22 0.69,-0.48 0.98,-0.79 0.3,-0.31 0.55,-0.65 0.76,-1.01 0.09,-0.16 0.23,-0.28 0.4,-0.37 0.17,-0.09 0.35,-0.11 0.54,-0.05zm-2.88 -4.49c-0.15,-0.1 -0.37,-0.06 -0.64,0.12 -0.28,0.18 -0.57,0.45 -0.87,0.81 -0.31,0.36 -0.6,0.78 -0.87,1.26 -0.28,0.48 -0.49,0.95 -0.64,1.43 0.45,0.08 0.89,-0.05 1.29,-0.4 0.41,-0.35 0.76,-0.75 1.05,-1.21 0.28,-0.46 0.49,-0.9 0.62,-1.31 0.14,-0.41 0.16,-0.64 0.06,-0.7zm14.23 4.49c0.21,0.08 0.36,0.24 0.46,0.47 0.09,0.23 0.06,0.49 -0.09,0.79 -0.53,0.96 -1.15,1.79 -1.85,2.47 -0.71,0.69 -1.49,1.06 -2.37,1.1 -0.72,0 -1.29,-0.16 -1.71,-0.47 -0.42,-0.31 -0.72,-0.71 -0.91,-1.21 -0.19,-0.5 -0.27,-1.04 -0.25,-1.63 0.03,-0.59 0.13,-1.18 0.3,-1.76l1.43 -4.52c-0.44,0.22 -0.89,0.58 -1.37,1.09 -0.47,0.51 -0.91,1.1 -1.31,1.77 -0.4,0.67 -0.74,1.38 -1.01,2.13 -0.28,0.75 -0.45,1.45 -0.5,2.11 -0.02,0.46 0.04,0.85 0.17,1.17 0.13,0.32 0.35,0.53 0.65,0.63 -0.41,0.28 -0.85,0.48 -1.29,0.6 -0.45,0.12 -0.88,0.11 -1.3,-0.03 -0.48,-0.14 -0.82,-0.37 -1.04,-0.69 -0.22,-0.32 -0.36,-0.69 -0.43,-1.11 -0.07,-0.42 -0.07,-0.86 -0.01,-1.32 0.05,-0.46 0.13,-0.89 0.22,-1.29 0.27,-0.92 0.55,-1.79 0.83,-2.63 0.29,-0.84 0.58,-1.71 0.89,-2.61 0.05,-0.36 0.01,-0.6 -0.15,-0.72 0.06,-0.2 0.26,-0.33 0.59,-0.39 0.33,-0.06 0.69,-0.04 1.07,0.07 0.38,0.11 0.72,0.31 1.04,0.59 0.31,0.28 0.48,0.66 0.5,1.14 0.19,-0.2 0.42,-0.42 0.68,-0.65 0.27,-0.23 0.55,-0.44 0.86,-0.63 0.3,-0.19 0.61,-0.34 0.92,-0.45 0.32,-0.11 0.62,-0.16 0.9,-0.16 0.65,0.02 1.2,0.23 1.64,0.63 0.45,0.4 0.63,0.97 0.56,1.71 -0.02,0.2 -0.08,0.45 -0.17,0.75l-1.26 3.92c-0.15,0.52 -0.22,0.9 -0.21,1.14 0.01,0.24 0.08,0.38 0.21,0.42 0.14,0.06 0.31,0.04 0.52,-0.07 0.21,-0.11 0.42,-0.27 0.65,-0.48 0.23,-0.21 0.45,-0.45 0.66,-0.71 0.21,-0.26 0.39,-0.51 0.54,-0.75 0.11,-0.16 0.25,-0.28 0.41,-0.37 0.16,-0.09 0.34,-0.11 0.53,-0.05zm5.53 0.03c0.06,-0.66 0.21,-1.27 0.46,-1.82 0.25,-0.56 0.57,-1.02 0.97,-1.38 0.4,-0.36 0.86,-0.6 1.37,-0.71 0.51,-0.11 1.07,-0.03 1.68,0.23 -0.7,1.32 -1.13,2.54 -1.28,3.68 -0.17,1.32 -0.03,2.38 0.44,3.18 0.47,0.8 1.12,1.31 1.95,1.53 0.84,0.22 1.79,0.14 2.86,-0.24 1.06,-0.38 2.11,-1.09 3.13,-2.14 1.03,-1.05 1.97,-2.45 2.81,-4.18 0.85,-1.74 1.48,-3.86 1.9,-6.36 0.09,-0.46 0.15,-0.98 0.17,-1.57 0.02,-0.59 -0.06,-1.12 -0.23,-1.57 -0.17,-0.52 -0.49,-0.81 -0.97,-0.87 -0.32,-0.04 -0.72,0.13 -1.2,0.51 -0.47,0.38 -0.96,0.82 -1.45,1.34l-3.14 9.8c-0.32,0.98 -0.45,1.81 -0.38,2.49 0.06,0.68 0.34,1.1 0.84,1.26 -0.44,0.28 -0.88,0.47 -1.31,0.58 -0.44,0.11 -0.87,0.11 -1.29,-0.01 -0.47,-0.14 -0.82,-0.37 -1.05,-0.69 -0.23,-0.32 -0.38,-0.69 -0.44,-1.11 -0.07,-0.42 -0.08,-0.86 -0.02,-1.32 0.06,-0.46 0.13,-0.89 0.23,-1.29l3.68 -11.53c0.07,-0.24 0.1,-0.45 0.07,-0.63 -0.03,-0.18 -0.1,-0.31 -0.21,-0.39 -0.12,-0.08 -0.26,-0.09 -0.43,-0.02 -0.17,0.07 -0.37,0.24 -0.6,0.5 -0.32,0.4 -0.62,0.9 -0.9,1.51 -0.27,0.61 -0.49,1.26 -0.64,1.96 -0.15,0.66 -0.23,1.31 -0.23,1.95 0,0.64 0.11,1.19 0.34,1.65 -0.97,0.16 -1.75,0.1 -2.35,-0.18 -0.6,-0.28 -1.03,-0.7 -1.3,-1.26 -0.26,-0.56 -0.38,-1.2 -0.35,-1.92 0.02,-0.72 0.17,-1.44 0.44,-2.16 0.21,-0.57 0.49,-1.11 0.84,-1.61 0.35,-0.5 0.76,-0.93 1.24,-1.29 0.25,-0.2 0.59,-0.37 1.04,-0.5 0.45,-0.13 0.93,-0.21 1.44,-0.25 0.51,-0.04 1.04,-0.04 1.58,0.01 0.55,0.05 1.05,0.16 1.5,0.33 0.46,0.17 0.85,0.4 1.18,0.69 0.34,0.29 0.55,0.65 0.65,1.07 0.41,-0.4 0.86,-0.75 1.32,-1.04 0.47,-0.29 0.93,-0.43 1.39,-0.43 0.22,-0.04 0.43,-0.04 0.62,0.01 0.19,0.05 0.39,0.13 0.6,0.23 0.42,0.22 0.86,0.51 1.31,0.87 0.38,0.34 0.75,0.7 1.09,1.09 0.34,0.39 0.59,0.77 0.74,1.15 0.06,0.18 0.09,0.39 0.11,0.62 0.02,0.23 0.03,0.46 0.03,0.7 0,0.24 -0.01,0.48 -0.04,0.71 -0.03,0.23 -0.05,0.43 -0.07,0.61 -0.29,2.04 -0.77,3.98 -1.46,5.82 -0.68,1.83 -1.6,3.44 -2.76,4.81 -1.16,1.36 -2.56,2.44 -4.18,3.22 -1.63,0.78 -3.52,1.13 -5.69,1.05 -0.76,-0.04 -1.46,-0.2 -2.08,-0.48 -0.63,-0.28 -1.3,-0.74 -2.03,-1.38 -0.76,-0.7 -1.29,-1.47 -1.58,-2.32 -0.29,-0.85 -0.41,-1.69 -0.36,-2.51zm28.72 -0.03c0.21,0.08 0.36,0.24 0.46,0.47 0.09,0.23 0.06,0.49 -0.09,0.79 -0.53,1.02 -1.24,1.87 -2.12,2.55 -0.89,0.68 -1.91,1.02 -3.07,1.02 -1.31,0 -2.32,-0.27 -3.02,-0.8 -0.7,-0.53 -1.17,-1.19 -1.41,-2 -0.24,-0.81 -0.26,-1.69 -0.07,-2.63 0.19,-0.93 0.52,-1.81 1.01,-2.62 0.48,-0.81 1.08,-1.48 1.8,-2.02 0.71,-0.54 1.48,-0.82 2.32,-0.84 0.55,-0.02 1.09,0.06 1.63,0.24 0.53,0.18 0.93,0.46 1.19,0.84 0.27,0.44 0.33,0.95 0.17,1.54 -0.15,0.59 -0.41,1.17 -0.79,1.73 -0.56,0.81 -1.18,1.43 -1.87,1.85 -0.7,0.42 -1.52,0.65 -2.47,0.69 -0.04,0.52 0.04,0.95 0.24,1.29 0.2,0.34 0.53,0.55 0.99,0.63 0.43,0.08 0.86,0.07 1.27,-0.03 0.41,-0.1 0.79,-0.26 1.15,-0.48 0.36,-0.22 0.69,-0.48 0.99,-0.79 0.29,-0.31 0.54,-0.65 0.75,-1.01 0.1,-0.16 0.23,-0.28 0.4,-0.37 0.17,-0.09 0.35,-0.11 0.54,-0.05zm-2.88 -4.49c-0.15,-0.1 -0.36,-0.06 -0.64,0.12 -0.28,0.18 -0.57,0.45 -0.87,0.81 -0.3,0.36 -0.59,0.78 -0.87,1.26 -0.28,0.48 -0.49,0.95 -0.64,1.43 0.45,0.08 0.89,-0.05 1.3,-0.4 0.4,-0.35 0.75,-0.75 1.04,-1.21 0.28,-0.46 0.49,-0.9 0.62,-1.31 0.14,-0.41 0.16,-0.64 0.06,-0.7zm11.61 4.49c0.21,0.08 0.36,0.24 0.46,0.47 0.09,0.23 0.06,0.49 -0.09,0.79 -0.46,0.82 -0.96,1.52 -1.51,2.1 -0.55,0.58 -1.29,0.93 -2.23,1.05 -0.21,0.36 -0.48,0.68 -0.81,0.97 -0.33,0.29 -0.69,0.54 -1.08,0.74 -0.39,0.2 -0.81,0.35 -1.24,0.45 -0.44,0.1 -0.86,0.15 -1.26,0.15 -0.72,0 -1.26,-0.22 -1.61,-0.66 -0.35,-0.44 -0.52,-0.93 -0.5,-1.46 0.02,-0.53 0.21,-1.01 0.56,-1.46 0.35,-0.45 0.86,-0.68 1.52,-0.68 0.36,0 0.69,0.02 0.99,0.05 0.29,0.03 0.6,0.06 0.92,0.1 -0.05,-0.3 -0.13,-0.59 -0.24,-0.87 -0.1,-0.28 -0.23,-0.56 -0.37,-0.84 -0.14,-0.28 -0.3,-0.57 -0.48,-0.88 -0.18,-0.31 -0.37,-0.66 -0.56,-1.04 -0.13,0.52 -0.3,1.07 -0.51,1.64 -0.21,0.57 -0.54,1.14 -0.97,1.72 -0.16,0.22 -0.34,0.33 -0.56,0.33 -0.22,0 -0.42,-0.08 -0.61,-0.24 -0.21,-0.18 -0.31,-0.37 -0.3,-0.58 0.01,-0.21 0.09,-0.42 0.24,-0.62 0.4,-0.52 0.69,-1.02 0.88,-1.51 0.19,-0.49 0.34,-0.97 0.45,-1.44 0.1,-0.47 0.19,-0.92 0.25,-1.36 0.07,-0.44 0.19,-0.87 0.36,-1.29 0.15,-0.46 0.42,-0.86 0.8,-1.2 0.38,-0.34 0.81,-0.62 1.28,-0.82 0.48,-0.21 0.97,-0.36 1.47,-0.45 0.5,-0.09 0.97,-0.14 1.38,-0.14 0.06,-0.1 0.15,-0.19 0.26,-0.28 0.11,-0.09 0.23,-0.15 0.34,-0.17 0.25,-0.02 0.54,0.08 0.87,0.29 0.34,0.21 0.52,0.45 0.56,0.73 0.04,0.16 0,0.3 -0.12,0.42 -0.11,0.14 -0.27,0.38 -0.47,0.72 -0.2,0.34 -0.38,0.7 -0.54,1.08 -0.16,0.38 -0.28,0.73 -0.35,1.06 -0.08,0.33 -0.06,0.57 0.05,0.71 -0.09,0.06 -0.23,0.06 -0.41,0 -0.18,-0.06 -0.37,-0.16 -0.56,-0.29 -0.19,-0.13 -0.36,-0.28 -0.51,-0.45 -0.15,-0.17 -0.25,-0.33 -0.29,-0.49 -0.03,-0.14 -0.03,-0.32 0.02,-0.54 0.05,-0.22 0.11,-0.45 0.18,-0.68 0.08,-0.23 0.17,-0.45 0.26,-0.66 0.1,-0.21 0.18,-0.39 0.26,-0.55 -0.29,0.06 -0.53,0.18 -0.72,0.36 -0.19,0.18 -0.34,0.39 -0.45,0.63 -0.12,0.24 -0.2,0.49 -0.24,0.75 -0.05,0.26 -0.06,0.51 -0.02,0.75 0.06,0.46 0.2,0.94 0.43,1.44 0.23,0.5 0.47,1 0.73,1.51 0.25,0.51 0.5,1.02 0.72,1.54 0.23,0.52 0.37,1.02 0.43,1.5 0.42,-0.2 0.8,-0.49 1.16,-0.87 0.35,-0.38 0.63,-0.75 0.84,-1.11 0.09,-0.16 0.23,-0.28 0.4,-0.37 0.17,-0.09 0.35,-0.11 0.54,-0.05zm-7.7 5.55c0.26,0.02 0.55,-0.08 0.84,-0.3 0.29,-0.22 0.54,-0.51 0.73,-0.87 -0.27,-0.04 -0.52,-0.08 -0.74,-0.12 -0.23,-0.04 -0.43,-0.06 -0.6,-0.06 -0.25,0.02 -0.46,0.1 -0.63,0.24 -0.17,0.14 -0.28,0.29 -0.33,0.46 -0.05,0.17 -0.01,0.32 0.1,0.45 0.12,0.13 0.32,0.2 0.63,0.2zm11.06 -13.04c-0.36,-0.08 -0.66,-0.27 -0.91,-0.58 -0.25,-0.31 -0.37,-0.65 -0.37,-1.01 0,-0.38 0.12,-0.67 0.37,-0.88 0.25,-0.21 0.55,-0.28 0.91,-0.2 0.35,0.08 0.64,0.28 0.89,0.59 0.25,0.31 0.37,0.64 0.37,1 0,0.38 -0.12,0.68 -0.37,0.89 -0.25,0.21 -0.54,0.27 -0.89,0.19zm2.43 7.49c0.21,0.08 0.36,0.24 0.45,0.47 0.1,0.23 0.07,0.49 -0.08,0.79 -0.53,0.96 -1.15,1.79 -1.85,2.47 -0.71,0.69 -1.5,1.06 -2.37,1.1 -0.72,0 -1.29,-0.16 -1.71,-0.47 -0.42,-0.31 -0.73,-0.71 -0.92,-1.21 -0.19,-0.5 -0.27,-1.04 -0.25,-1.63 0.02,-0.59 0.12,-1.18 0.31,-1.76l1.48 -4.76c0.06,-0.36 0.01,-0.59 -0.14,-0.69 0.06,-0.2 0.27,-0.34 0.63,-0.41 0.36,-0.07 0.75,-0.04 1.15,0.09 0.41,0.13 0.77,0.38 1.07,0.74 0.31,0.36 0.42,0.85 0.35,1.47 -0.02,0.2 -0.08,0.45 -0.18,0.75l-1.25 3.92c-0.15,0.52 -0.22,0.9 -0.21,1.14 0.01,0.24 0.08,0.38 0.21,0.42 0.13,0.06 0.3,0.04 0.51,-0.07 0.21,-0.11 0.43,-0.27 0.66,-0.48 0.23,-0.21 0.45,-0.45 0.66,-0.71 0.2,-0.26 0.38,-0.51 0.54,-0.75 0.09,-0.16 0.23,-0.28 0.4,-0.37 0.17,-0.09 0.35,-0.11 0.54,-0.05z"/>
   <path class="fil1" d="M138.02 46.34c0.21,0.08 0.36,0.24 0.45,0.47 0.1,0.23 0.07,0.49 -0.08,0.79 -0.5,0.94 -1.02,1.68 -1.57,2.21 -0.55,0.52 -1.11,0.95 -1.68,1.27 -0.31,0.16 -0.62,0.31 -0.94,0.45 -0.33,0.14 -0.66,0.28 -1,0.42l-0.89 2.79c-0.17,0.51 -0.41,1.01 -0.72,1.48 -0.32,0.47 -0.68,0.88 -1.09,1.24 -0.41,0.36 -0.86,0.65 -1.35,0.87 -0.5,0.22 -1.02,0.33 -1.57,0.33 -0.44,0 -0.79,-0.11 -1.07,-0.33 -0.27,-0.22 -0.48,-0.5 -0.63,-0.84 -0.14,-0.34 -0.22,-0.71 -0.24,-1.11 -0.02,-0.4 0.02,-0.78 0.12,-1.14 0.13,-0.61 0.34,-1.15 0.64,-1.61 0.29,-0.46 0.63,-0.86 1.01,-1.2 0.38,-0.34 0.8,-0.64 1.25,-0.89 0.46,-0.25 0.94,-0.47 1.43,-0.67l0.17 -0.6c-0.26,0.28 -0.56,0.51 -0.88,0.69 -0.33,0.18 -0.69,0.25 -1.09,0.21 -0.66,-0.06 -1.19,-0.24 -1.59,-0.53 -0.4,-0.29 -0.69,-0.66 -0.87,-1.1 -0.18,-0.45 -0.28,-0.95 -0.3,-1.5 -0.02,-0.55 0.02,-1.12 0.11,-1.7 0.12,-0.7 0.32,-1.41 0.61,-2.14 0.3,-0.73 0.67,-1.39 1.13,-1.99 0.46,-0.6 0.99,-1.09 1.61,-1.46 0.62,-0.37 1.31,-0.53 2.07,-0.49 0.42,0.02 0.8,0.11 1.15,0.27 0.36,0.16 0.66,0.4 0.9,0.72 0.04,-0.3 -0.02,-0.5 -0.17,-0.6 0.06,-0.2 0.27,-0.34 0.63,-0.41 0.36,-0.07 0.75,-0.04 1.15,0.09 0.41,0.13 0.77,0.38 1.07,0.74 0.31,0.36 0.42,0.85 0.35,1.47 -0.02,0.1 -0.04,0.21 -0.06,0.33 -0.02,0.12 -0.05,0.26 -0.09,0.42l-1.96 6.11c0.59,-0.28 1.14,-0.62 1.65,-1.03 0.51,-0.41 0.98,-0.95 1.4,-1.61 0.09,-0.16 0.22,-0.28 0.38,-0.37 0.16,-0.09 0.35,-0.11 0.56,-0.05zm-10.41 11.21c0.06,0.02 0.13,-0.05 0.23,-0.21 0.09,-0.16 0.19,-0.37 0.3,-0.63 0.1,-0.26 0.21,-0.55 0.32,-0.87 0.12,-0.32 0.22,-0.62 0.32,-0.9 0.09,-0.27 0.17,-0.52 0.24,-0.73 0.07,-0.21 0.11,-0.34 0.13,-0.4 -0.32,0.24 -0.62,0.51 -0.89,0.82 -0.26,0.31 -0.48,0.66 -0.65,1.06 -0.17,0.4 -0.28,0.79 -0.31,1.16 -0.04,0.37 0.06,0.6 0.31,0.7zm5.13 -15.1c-0.05,-0.12 -0.16,-0.21 -0.33,-0.26 -0.16,-0.05 -0.33,-0.07 -0.52,-0.06 -0.19,0.01 -0.39,0.05 -0.59,0.12 -0.2,0.07 -0.36,0.17 -0.5,0.29 -0.43,0.4 -0.82,0.95 -1.15,1.66 -0.33,0.71 -0.6,1.42 -0.79,2.14 -0.19,0.76 -0.28,1.44 -0.28,2.03 0,0.59 0.13,0.91 0.4,0.97 0.19,0.08 0.42,-0.03 0.7,-0.34 0.27,-0.31 0.55,-0.7 0.84,-1.16 0.28,-0.46 0.54,-0.92 0.78,-1.39 0.24,-0.47 0.42,-0.83 0.53,-1.07l0.91 -2.93zm16.63 3.89c0.21,0.08 0.36,0.24 0.46,0.47 0.09,0.23 0.06,0.49 -0.09,0.79 -0.53,0.96 -1.15,1.79 -1.85,2.47 -0.71,0.69 -1.5,1.06 -2.37,1.1 -0.72,0 -1.29,-0.16 -1.71,-0.47 -0.42,-0.31 -0.72,-0.71 -0.92,-1.21 -0.19,-0.5 -0.27,-1.04 -0.24,-1.63 0.03,-0.59 0.13,-1.18 0.3,-1.76l1.43 -4.52c-0.44,0.22 -0.9,0.58 -1.37,1.09 -0.48,0.51 -0.91,1.1 -1.31,1.77 -0.4,0.67 -0.74,1.38 -1.02,2.13 -0.27,0.75 -0.44,1.45 -0.49,2.11 -0.02,0.46 0.03,0.85 0.17,1.17 0.13,0.32 0.35,0.53 0.65,0.63 -0.42,0.28 -0.85,0.48 -1.29,0.6 -0.45,0.12 -0.88,0.11 -1.3,-0.03 -0.48,-0.14 -0.82,-0.37 -1.04,-0.69 -0.22,-0.32 -0.36,-0.69 -0.43,-1.11 -0.07,-0.42 -0.07,-0.86 -0.02,-1.32 0.06,-0.46 0.14,-0.89 0.23,-1.29 0.27,-0.92 0.54,-1.79 0.83,-2.63 0.28,-0.84 0.58,-1.71 0.88,-2.61 0.06,-0.36 0.01,-0.6 -0.14,-0.72 0.06,-0.2 0.25,-0.33 0.59,-0.39 0.33,-0.06 0.69,-0.04 1.07,0.07 0.38,0.11 0.72,0.31 1.04,0.59 0.31,0.28 0.48,0.66 0.5,1.14 0.19,-0.2 0.41,-0.42 0.68,-0.65 0.27,-0.23 0.55,-0.44 0.86,-0.63 0.3,-0.19 0.61,-0.34 0.92,-0.45 0.32,-0.11 0.62,-0.16 0.9,-0.16 0.65,0.02 1.19,0.23 1.64,0.63 0.45,0.4 0.63,0.97 0.56,1.71 -0.02,0.2 -0.08,0.45 -0.17,0.75l-1.26 3.92c-0.15,0.52 -0.22,0.9 -0.21,1.14 0.01,0.24 0.08,0.38 0.21,0.42 0.13,0.06 0.3,0.04 0.51,-0.07 0.21,-0.11 0.43,-0.27 0.66,-0.48 0.23,-0.21 0.45,-0.45 0.66,-0.71 0.2,-0.26 0.39,-0.51 0.54,-0.75 0.11,-0.16 0.25,-0.28 0.41,-0.37 0.16,-0.09 0.34,-0.11 0.53,-0.05zm8.73 0c0.2,0.08 0.36,0.24 0.45,0.47 0.1,0.23 0.07,0.49 -0.08,0.79 -0.46,0.82 -0.96,1.52 -1.52,2.1 -0.55,0.58 -1.29,0.93 -2.22,1.05 -0.21,0.36 -0.48,0.68 -0.81,0.97 -0.34,0.29 -0.7,0.54 -1.09,0.74 -0.39,0.2 -0.8,0.35 -1.24,0.45 -0.43,0.1 -0.85,0.15 -1.25,0.15 -0.72,0 -1.26,-0.22 -1.61,-0.66 -0.35,-0.44 -0.52,-0.93 -0.5,-1.46 0.02,-0.53 0.2,-1.01 0.55,-1.46 0.36,-0.45 0.86,-0.68 1.53,-0.68 0.36,0 0.69,0.02 0.98,0.05 0.3,0.03 0.61,0.06 0.93,0.1 -0.06,-0.3 -0.14,-0.59 -0.24,-0.87 -0.11,-0.28 -0.23,-0.56 -0.37,-0.84 -0.15,-0.28 -0.31,-0.57 -0.49,-0.88 -0.18,-0.31 -0.36,-0.66 -0.55,-1.04 -0.14,0.52 -0.31,1.07 -0.52,1.64 -0.21,0.57 -0.53,1.14 -0.97,1.72 -0.15,0.22 -0.33,0.33 -0.55,0.33 -0.22,0 -0.43,-0.08 -0.62,-0.24 -0.2,-0.18 -0.3,-0.37 -0.3,-0.58 0.01,-0.21 0.1,-0.42 0.25,-0.62 0.4,-0.52 0.69,-1.02 0.88,-1.51 0.19,-0.49 0.34,-0.97 0.44,-1.44 0.11,-0.47 0.19,-0.92 0.26,-1.36 0.07,-0.44 0.19,-0.87 0.36,-1.29 0.15,-0.46 0.41,-0.86 0.8,-1.2 0.38,-0.34 0.8,-0.62 1.28,-0.82 0.47,-0.21 0.96,-0.36 1.47,-0.45 0.5,-0.09 0.96,-0.14 1.38,-0.14 0.06,-0.1 0.14,-0.19 0.26,-0.28 0.11,-0.09 0.23,-0.15 0.34,-0.17 0.25,-0.02 0.54,0.08 0.87,0.29 0.33,0.21 0.52,0.45 0.56,0.73 0.03,0.16 0,0.3 -0.12,0.42 -0.11,0.14 -0.27,0.38 -0.47,0.72 -0.2,0.34 -0.38,0.7 -0.54,1.08 -0.16,0.38 -0.28,0.73 -0.36,1.06 -0.07,0.33 -0.05,0.57 0.06,0.71 -0.1,0.06 -0.23,0.06 -0.41,0 -0.18,-0.06 -0.37,-0.16 -0.56,-0.29 -0.19,-0.13 -0.36,-0.28 -0.51,-0.45 -0.16,-0.17 -0.25,-0.33 -0.29,-0.49 -0.04,-0.14 -0.03,-0.32 0.02,-0.54 0.04,-0.22 0.1,-0.45 0.18,-0.68 0.08,-0.23 0.16,-0.45 0.26,-0.66 0.09,-0.21 0.18,-0.39 0.25,-0.55 -0.28,0.06 -0.52,0.18 -0.71,0.36 -0.19,0.18 -0.34,0.39 -0.46,0.63 -0.11,0.24 -0.19,0.49 -0.24,0.75 -0.05,0.26 -0.05,0.51 -0.01,0.75 0.06,0.46 0.2,0.94 0.43,1.44 0.22,0.5 0.47,1 0.72,1.51 0.26,0.51 0.5,1.02 0.73,1.54 0.23,0.52 0.37,1.02 0.43,1.5 0.42,-0.2 0.8,-0.49 1.15,-0.87 0.35,-0.38 0.64,-0.75 0.84,-1.11 0.1,-0.16 0.23,-0.28 0.4,-0.37 0.17,-0.09 0.36,-0.11 0.55,-0.05zm-7.7 5.55c0.26,0.02 0.54,-0.08 0.84,-0.3 0.29,-0.22 0.53,-0.51 0.72,-0.87 -0.26,-0.04 -0.51,-0.08 -0.74,-0.12 -0.23,-0.04 -0.43,-0.06 -0.6,-0.06 -0.24,0.02 -0.45,0.1 -0.62,0.24 -0.17,0.14 -0.28,0.29 -0.33,0.46 -0.05,0.17 -0.02,0.32 0.1,0.45 0.11,0.13 0.32,0.2 0.63,0.2z"/>
  </g>
  <path class="fil2" d="M108.55 15.01c-1.55,-1.82 -4.38,-4.24 -1.46,-6.76 2.95,1.32 2.26,5 1.46,6.76zm6.7 -4.39c1.57,1.46 3.36,2.85 3.21,4.85 -3.51,0.5 -7.81,-4.12 -3.21,-4.85zm12.54 0.3c3.88,1.27 3.49,6.24 2.49,7.56 -2.7,-1.77 -7.09,-5.59 -2.49,-7.56zm12.98 2.87c3.75,0.96 5.09,5.72 2.19,8.79 -0.88,-2.68 -7.4,-6.33 -2.19,-8.79zm1.47 14.21c-2.47,1.49 -4.59,3.95 -7.87,3.18 1.69,-3.63 4.84,-3.25 7.87,-3.18zm-7 -3.19c-2.7,1.54 -5.03,4.09 -8.75,2.78 0.74,-4.33 5.71,-2.59 8.75,-2.78zm-18.95 3.55c-0.19,-3.08 3.8,-4.25 5.97,-5.07 -1.13,3.06 -2.66,6.38 -5.97,5.07zm-8.31 -0.07c-1.28,-2.3 1.91,-5.75 3.93,-6.67 -1.19,2.47 -0.58,6.68 -3.93,6.67zm-5.69 -0.9c-3.05,0.7 -1.52,-4.64 0,-6.09 0.22,1.96 0.4,3.93 0,6.09zm-15.31 -5.28c-2.4,1.04 -5.41,3.84 -8.45,0.88 2.03,-2.47 5.26,-1.62 8.45,-0.88zm3.8 5.79c-2.19,-1.27 -1.31,-5.39 1.16,-5.57 0.31,1.53 0.96,4.01 -1.16,5.57zm-3.37 -12.71c2.08,-0.49 4.94,2.03 5.4,3.48 -2.13,-0.52 -5.72,-1.17 -5.4,-3.48zm7.73 -2.23c2.41,0.51 4.29,2.54 4.96,4.29 -2.21,-0.95 -6.63,-1.55 -4.96,-4.29zm14 5.03c-2.46,-0.46 -4,0.79 -6.13,-0.08 -3.35,-1.38 -2.87,-6.73 -9.83,-6 -1.3,2.72 1.76,5.62 5.02,6.17 -3.15,2.82 -6.75,-5.7 -12.62,-3.92 -0.18,3.44 4.93,5.8 7.52,5.32 -2.91,3.16 -12.09,-2.01 -15.01,1.62 -0.98,1.21 -1.17,2.71 -0.14,3.66 3.67,3.42 9.8,-2.18 12.24,-3.22 -1.68,1.57 -3.15,6.39 -0.72,7.45 3.66,1.61 5.11,-4.94 3.63,-7.48 2.38,-2.19 5.77,-1.57 8.75,-2.11 -1.87,1.53 -4.42,6.91 -0.39,10.05 3.67,-0.33 3.15,-7.36 2.58,-10.06 2.61,-0.65 5.61,-0.2 8.45,-0.21 -1.89,1.67 -9.77,8.38 -3.34,11 3.83,-1.98 2.59,-6.98 5.38,-10.75 2.99,-0.28 6.48,0.86 9.62,1 -2.07,2.01 -10,2.59 -9.17,8.35 5.71,4.07 6.03,-3.3 8.88,-6.45 2.82,-3.1 8.2,0.07 12.83,1.11 -2.83,0.75 -10.96,-1.31 -11.66,3.49 -0.09,0.65 0.42,1.76 1.32,2.29 3.67,2.16 9.03,-4.08 12.53,-5.12 1.65,0.75 3.31,1.51 4.96,2.26 -3.9,0.25 -10.39,-0.31 -10.78,5.24 4.58,3.27 7.83,-2.46 11.51,-3.89 2.34,-0.09 5.4,2.52 7.87,3.34 0.52,0.17 1.01,-0.51 0.63,-0.85 -1.93,-1.74 -6.23,-2.98 -8.65,-4.93 0.82,-4.38 3.13,-9.32 -0.59,-11.78 -1.7,-1.12 -3.57,-1.04 -4.38,-0.64 -5.66,2.86 2.3,8.85 2.93,11.49 -2.84,-0.86 -5.8,-2.57 -9.19,-3.17 -1.52,-2.26 -0.36,-7.87 -2.63,-10 -2.24,-2.1 -4.95,-1.44 -5.97,0.32 -2.1,3.58 3.41,6.27 6.56,8.75 -3.12,-0.27 -6.51,0.55 -9.18,-1.82 -2.37,-2.09 -3.19,-11.41 -8.76,-8.73 -0.17,0.09 -0.83,0.9 -0.87,0.96 -2.94,4.47 5.94,5.26 7.73,7.92 -3.04,-0.1 -6.24,-0.64 -9.18,-0.46 -1.99,-3.29 2.35,-11.67 -5.41,-10.93 -3.2,5.01 2.15,7.3 3.66,10.81z"/>
  <path class="fil2" d="M59.88 70.07c1.67,1.77 4.67,4.07 1.89,6.7 -3.05,-1.21 -2.58,-4.91 -1.89,-6.7zm-6.47 4.65c-1.66,-1.4 -3.55,-2.71 -3.52,-4.72 3.5,-0.63 8.1,3.81 3.52,4.72zm-12.62 0.18c-3.98,-1.11 -3.89,-6.1 -2.96,-7.46 2.82,1.67 7.46,5.32 2.96,7.46zm-13.22 -2.36c-3.83,-0.82 -5.47,-5.52 -2.75,-8.69 1.06,2.64 7.83,6.03 2.75,8.69zm-2.36 -14.14c2.39,-1.58 4.37,-4.12 7.72,-3.48 -1.48,3.7 -4.67,3.43 -7.72,3.48zm7.24 2.92c2.61,-1.65 4.79,-4.28 8.61,-3.12 -0.46,4.36 -5.58,2.81 -8.61,3.12zm18.82 -4.27c0.39,3.06 -3.55,4.39 -5.69,5.28 0.95,-3.1 2.28,-6.47 5.69,-5.28zm8.36 -0.26c1.43,2.25 -1.57,5.82 -3.54,6.81 1.05,-2.51 0.17,-6.69 3.54,-6.81zm5.77 0.68c3.03,-0.81 1.82,4.57 0.38,6.09 -0.34,-1.95 -0.65,-3.92 -0.38,-6.09zm15.72 4.69c2.35,-1.13 5.2,-4.05 8.44,-1.21 -1.89,2.55 -5.19,1.82 -8.44,1.21zm-4.17 -5.64c2.27,1.18 1.64,5.34 -0.83,5.6 -0.4,-1.51 -1.21,-3.96 0.83,-5.6zm4.16 12.56c-2.05,0.57 -5.08,-1.83 -5.64,-3.26 2.18,0.43 5.83,0.94 5.64,3.26zm-7.62 2.53c-2.46,-0.42 -4.47,-2.38 -5.25,-4.1 2.27,0.87 6.76,1.3 5.25,4.1zm-14.38 -4.49c2.49,0.37 3.97,-0.94 6.16,-0.15 3.45,1.25 3.3,6.61 10.25,5.61 1.14,-2.76 -2.12,-5.54 -5.43,-5.97 3,-2.93 7.14,5.43 12.94,3.43 -0.04,-3.45 -5.32,-5.6 -7.9,-5.02 2.73,-3.27 12.28,1.54 14.99,-2.2 0.91,-1.24 1,-2.75 -0.08,-3.66 -3.91,-3.28 -9.72,2.56 -12.11,3.69 1.59,-1.63 2.77,-6.51 0.27,-7.47 -3.79,-1.46 -4.84,5.13 -3.2,7.61 -2.25,2.28 -5.7,1.79 -8.66,2.44 1.79,-1.6 4.01,-7.07 -0.23,-10.05 -3.67,0.47 -2.71,7.47 -1.96,10.15 -2.59,0.75 -5.64,0.41 -8.49,0.54 1.8,-1.75 9.31,-8.75 2.68,-11.12 -3.73,2.12 -2.18,7.07 -4.75,10.94 -2.98,0.39 -6.57,-0.6 -9.73,-0.63 1.96,-2.08 9.9,-2.97 8.71,-8.68 -6,-3.86 -5.86,3.52 -8.54,6.77 -2.63,3.21 -8.24,0.25 -12.96,-0.61 2.8,-0.86 11.1,0.89 11.5,-3.93 0.05,-0.65 -0.53,-1.75 -1.46,-2.24 -3.83,-2.02 -8.83,4.42 -12.28,5.6 -1.71,-0.69 -3.42,-1.38 -5.13,-2.07 3.91,-0.4 10.47,-0.09 10.52,-5.65 -4.81,-3.09 -7.73,2.76 -11.33,4.33 -2.35,0.18 -5.59,-2.31 -8.12,-3.03 -0.53,-0.15 -0.99,0.55 -0.59,0.87 2.05,1.67 6.46,2.74 9.01,4.59 -0.56,4.41 -2.57,9.43 1.32,11.74 1.78,1.06 3.66,0.91 4.44,0.47 5.52,-3.07 -2.86,-8.75 -3.65,-11.36 2.91,0.75 5.99,2.35 9.43,2.82 1.67,2.19 0.85,7.84 3.26,9.88 2.39,2.01 5.07,1.24 5.99,-0.55 1.88,-3.65 -3.82,-6.13 -7.14,-8.48 3.15,0.14 6.51,-0.81 9.34,1.46 2.51,2 3.92,11.27 9.34,8.38 0.17,-0.09 0.79,-0.93 0.82,-0.99 2.68,-4.58 -6.29,-5.02 -8.26,-7.62 3.07,-0.01 6.31,0.4 9.26,0.11 2.2,3.21 -1.65,11.74 6.11,10.7 2.91,-5.12 -2.61,-7.2 -4.34,-10.65z"/>
  <path class="fil3" d="M59.92 19.39c-0.45,0.26 -1.61,0.21 -2.02,1.6 -0.37,1.25 0.63,2.03 1,2.54 0.36,0.51 -0.31,1.78 0.92,2.76 0.72,0.58 1.95,0.46 2.67,-0.12 0.08,0.51 -0.11,0.9 0.12,1.51 0.36,0.92 1.25,1.39 2.27,1.22 0.56,-0.1 0.9,-0.37 1.35,-0.47 0.47,0.52 2.41,0.43 3.04,-0.23 0.63,-0.66 0.66,-1.23 0.46,-2.33 0.52,0.09 1.51,0.82 2.69,-0.17 1.1,-0.94 0.37,-2.24 0.63,-2.8 0.15,-0.32 1.28,-1.29 0.82,-2.6 -0.35,-0.97 -1.07,-1.29 -2.21,-1.42 0.16,-0.33 1.36,-1.32 0.62,-2.74 -0.64,-1.23 -2.02,-0.96 -2.41,-1.33 -0.28,-0.27 -0.81,-1.59 -2.15,-1.59 -0.96,0 -1.57,0.55 -1.95,1.33 -0.1,0.21 -0.06,0.19 -0.2,0.33 -0.4,-0.8 -1.05,-1.55 -2.22,-1.45 -0.73,0.06 -1.27,0.58 -1.63,1.12 -0.12,0.19 -0.23,0.45 -0.35,0.61 -0.32,0.43 -1.68,0.3 -2.26,1.51 -0.72,1.48 0.57,2.39 0.81,2.72z"/>
  <path class="fil4" d="M65.38 18.94c-0.21,-0.23 -0.16,-0.33 -0.44,-0.47l0.03 0.6c-0.41,-0.64 -1.28,-1.85 -1.98,-2.11 0.06,1.12 1.43,2.54 1.58,2.88 -0.35,-0.11 -0.5,-0.29 -0.94,-0.36 0.09,0.27 0.52,0.66 0.74,0.78 -0.99,-0.14 -2.11,-0.81 -3.26,-0.49 -0.01,0 -0.1,0.03 0.13,0.21 0.48,0.39 1.76,0.74 2.35,0.87l-0.51 0.26 0.77 0.16c-0.87,0.39 -2.22,0.7 -2.8,1.33 1.1,0 2.21,-0.41 3.14,-0.7 -0.22,0.2 -0.41,0.41 -0.49,0.79 0.48,-0.1 0.61,-0.27 0.96,-0.44 -0.41,0.68 -1.47,1.87 -1.51,2.98 0.6,-0.26 1.22,-1.14 1.59,-1.7l0.35 -0.56c0.12,-0.16 0.01,-0.02 0.1,-0.12l-0.03 0.84c0.22,-0.1 0.29,-0.41 0.43,-0.59 0.12,1.05 0,2.06 0.51,2.92 0.53,-0.52 0.27,-2.19 0.28,-3.01 0.16,0.26 0.21,0.44 0.45,0.61l-0.06 -0.81c0.42,0.68 1.42,1.91 2.15,2.2 -0.03,-0.96 -1.09,-1.97 -1.46,-2.56l0.64 0.24c-0.14,-0.39 -0.36,-0.46 -0.54,-0.72 0.94,0.26 1.93,0.82 3.09,0.62 -0.43,-0.75 -2.56,-1.16 -3.06,-1.4 0.36,-0.07 0.69,-0.07 1.01,-0.25 -0.2,-0.25 -0.59,-0.08 -0.89,-0.3 0.89,-0.18 2.46,-0.97 2.79,-1.55 -0.58,-0.03 -1.06,0.09 -1.56,0.26 -0.33,0.12 -1.01,0.45 -1.26,0.49 0.12,-0.09 0.3,-0.35 0.35,-0.52l-0.59 0.22c0.38,-0.61 1.28,-1.59 1.35,-2.58 -0.72,0.2 -1.76,1.77 -2.18,2.42 0.03,-0.3 0.11,-0.62 0.06,-0.97 -0.15,0.1 -0.17,0.14 -0.27,0.33l-0.24 0.44c-0.07,-1.17 -0.05,-2.19 -0.52,-3.14 -0.49,0.51 -0.3,2.13 -0.26,2.9z"/>
  <path class="fil2" d="M65.46 19.61c-1.92,0.6 -1,3.47 0.91,2.84 1.77,-0.59 1,-3.43 -0.91,-2.84z"/>
  <path class="fil3" d="M43.84 21.79c-0.28,0.17 -1.02,0.13 -1.27,1.01 -0.24,0.79 0.39,1.28 0.63,1.61 0.23,0.32 -0.2,1.13 0.58,1.74 0.46,0.37 1.23,0.3 1.69,-0.07 0.05,0.32 -0.07,0.56 0.08,0.95 0.22,0.58 0.78,0.88 1.43,0.77 0.36,-0.06 0.57,-0.23 0.85,-0.3 0.3,0.33 1.53,0.28 1.93,-0.14 0.39,-0.42 0.41,-0.78 0.29,-1.47 0.33,0.06 0.95,0.52 1.7,-0.11 0.69,-0.59 0.23,-1.42 0.4,-1.77 0.09,-0.2 0.8,-0.82 0.51,-1.64 -0.22,-0.62 -0.67,-0.82 -1.39,-0.9 0.1,-0.21 0.86,-0.84 0.39,-1.73 -0.41,-0.78 -1.28,-0.61 -1.52,-0.85 -0.18,-0.16 -0.52,-1 -1.37,-1 -0.6,0 -0.99,0.34 -1.22,0.84 -0.07,0.13 -0.04,0.12 -0.13,0.21 -0.25,-0.51 -0.66,-0.98 -1.4,-0.92 -0.47,0.04 -0.81,0.37 -1.04,0.71 -0.08,0.12 -0.14,0.28 -0.22,0.39 -0.2,0.26 -1.06,0.19 -1.43,0.95 -0.45,0.94 0.36,1.51 0.51,1.72z"/>
  <path class="fil4" d="M47.3 21.51c-0.14,-0.15 -0.11,-0.21 -0.28,-0.3l0.02 0.38c-0.26,-0.4 -0.81,-1.17 -1.25,-1.33 0.03,0.7 0.9,1.6 0.99,1.82 -0.22,-0.07 -0.31,-0.19 -0.59,-0.23 0.06,0.17 0.33,0.42 0.47,0.49 -0.63,-0.09 -1.34,-0.51 -2.07,-0.31 0,0 -0.06,0.02 0.09,0.13 0.3,0.25 1.12,0.47 1.49,0.55l-0.33 0.17 0.49 0.1c-0.55,0.25 -1.41,0.44 -1.77,0.84 0.69,0 1.4,-0.26 1.99,-0.44 -0.14,0.13 -0.26,0.26 -0.32,0.5 0.31,-0.07 0.39,-0.17 0.61,-0.28 -0.26,0.43 -0.93,1.18 -0.95,1.88 0.37,-0.16 0.77,-0.72 1,-1.07l0.22 -0.36c0.08,-0.1 0.01,-0.01 0.07,-0.07l-0.02 0.53c0.14,-0.07 0.18,-0.26 0.27,-0.37 0.07,0.66 0,1.3 0.32,1.84 0.34,-0.33 0.17,-1.38 0.18,-1.9 0.1,0.17 0.13,0.28 0.28,0.38l-0.03 -0.51c0.26,0.44 0.89,1.21 1.36,1.39 -0.02,-0.6 -0.69,-1.24 -0.93,-1.62l0.4 0.16c-0.08,-0.25 -0.22,-0.3 -0.34,-0.46 0.6,0.16 1.23,0.52 1.96,0.39 -0.27,-0.47 -1.62,-0.73 -1.93,-0.88 0.23,-0.05 0.43,-0.05 0.63,-0.16 -0.13,-0.16 -0.37,-0.05 -0.56,-0.19 0.56,-0.11 1.55,-0.61 1.76,-0.98 -0.36,-0.02 -0.66,0.06 -0.98,0.17 -0.21,0.07 -0.64,0.28 -0.8,0.3 0.08,-0.05 0.19,-0.21 0.22,-0.32l-0.37 0.13c0.24,-0.38 0.81,-1 0.85,-1.62 -0.45,0.12 -1.11,1.11 -1.38,1.52 0.02,-0.18 0.08,-0.39 0.04,-0.61 -0.09,0.07 -0.1,0.09 -0.17,0.21l-0.15 0.28c-0.04,-0.74 -0.03,-1.39 -0.33,-1.99 -0.31,0.33 -0.19,1.35 -0.16,1.84z"/>
  <path class="fil2" d="M47.35 21.93c-1.21,0.38 -0.63,2.19 0.57,1.8 1.12,-0.38 0.63,-2.18 -0.57,-1.8z"/>
  <path class="fil3" d="M33.3 19.04c-0.2,0.12 -0.73,0.1 -0.91,0.73 -0.17,0.57 0.28,0.92 0.45,1.15 0.17,0.23 -0.14,0.81 0.42,1.26 0.33,0.26 0.89,0.21 1.21,-0.06 0.04,0.24 -0.05,0.41 0.06,0.69 0.16,0.42 0.56,0.63 1.03,0.55 0.25,-0.04 0.41,-0.17 0.61,-0.21 0.21,0.24 1.1,0.2 1.38,-0.1 0.29,-0.3 0.3,-0.56 0.21,-1.06 0.24,0.04 0.69,0.37 1.22,-0.08 0.51,-0.43 0.17,-1.02 0.29,-1.27 0.07,-0.15 0.58,-0.59 0.37,-1.18 -0.15,-0.45 -0.48,-0.59 -1,-0.65 0.07,-0.15 0.62,-0.6 0.28,-1.24 -0.29,-0.56 -0.92,-0.44 -1.09,-0.61 -0.13,-0.12 -0.37,-0.72 -0.98,-0.72 -0.44,0 -0.71,0.25 -0.88,0.6 -0.05,0.1 -0.03,0.09 -0.1,0.15 -0.18,-0.36 -0.47,-0.7 -1,-0.66 -0.34,0.03 -0.59,0.27 -0.75,0.51 -0.05,0.09 -0.1,0.21 -0.16,0.28 -0.14,0.19 -0.76,0.14 -1.02,0.69 -0.33,0.67 0.25,1.08 0.36,1.23z"/>
  <path class="fil4" d="M35.79 18.84c-0.1,-0.11 -0.08,-0.15 -0.2,-0.21l0.01 0.27c-0.19,-0.29 -0.58,-0.85 -0.9,-0.96 0.03,0.51 0.65,1.15 0.72,1.31 -0.16,-0.05 -0.23,-0.14 -0.43,-0.17 0.04,0.12 0.24,0.3 0.34,0.36 -0.45,-0.07 -0.96,-0.37 -1.49,-0.23 0,0.01 -0.04,0.02 0.06,0.1 0.22,0.18 0.81,0.34 1.07,0.4l-0.23 0.11 0.35 0.08c-0.4,0.18 -1.01,0.31 -1.27,0.6 0.5,0 1,-0.18 1.43,-0.32 -0.1,0.1 -0.19,0.19 -0.23,0.36 0.22,-0.04 0.28,-0.12 0.44,-0.2 -0.19,0.31 -0.67,0.85 -0.69,1.36 0.27,-0.12 0.56,-0.52 0.73,-0.78l0.15 -0.25c0.06,-0.07 0.01,-0.01 0.05,-0.05l-0.01 0.37c0.1,-0.04 0.13,-0.18 0.19,-0.26 0.05,0.48 0,0.94 0.23,1.33 0.25,-0.24 0.12,-1 0.13,-1.37 0.07,0.12 0.1,0.2 0.21,0.27l-0.03 -0.36c0.19,0.31 0.64,0.87 0.98,1 -0.02,-0.44 -0.5,-0.9 -0.67,-1.17l0.29 0.11c-0.06,-0.17 -0.16,-0.21 -0.24,-0.32 0.42,0.11 0.88,0.37 1.4,0.27 -0.19,-0.33 -1.16,-0.52 -1.39,-0.63 0.17,-0.03 0.31,-0.03 0.46,-0.12 -0.09,-0.11 -0.27,-0.03 -0.41,-0.13 0.41,-0.08 1.12,-0.44 1.27,-0.71 -0.26,-0.01 -0.48,0.05 -0.71,0.13 -0.15,0.05 -0.46,0.2 -0.57,0.22 0.06,-0.04 0.14,-0.16 0.16,-0.24l-0.27 0.1c0.17,-0.28 0.59,-0.72 0.62,-1.17 -0.33,0.09 -0.8,0.8 -1,1.1 0.02,-0.14 0.06,-0.29 0.03,-0.44 -0.06,0.04 -0.08,0.06 -0.12,0.15l-0.11 0.2c-0.03,-0.54 -0.02,-1 -0.24,-1.43 -0.22,0.23 -0.13,0.97 -0.11,1.32z"/>
  <path class="fil2" d="M35.82 19.14c-0.87,0.28 -0.45,1.58 0.42,1.29 0.8,-0.26 0.45,-1.56 -0.42,-1.29z"/>
  <path class="fil5" d="M28.97 17.56c0.68,-0.04 1.26,0.49 1.3,1.17 0.03,0.68 -0.5,1.26 -1.18,1.3 -0.68,0.03 -1.26,-0.5 -1.29,-1.18 -0.04,-0.68 0.49,-1.26 1.17,-1.29z"/>
  <path class="fil5" d="M24.64 15.59c0.49,-0.03 0.91,0.36 0.94,0.85 0.02,0.5 -0.36,0.92 -0.86,0.94 -0.49,0.03 -0.92,-0.35 -0.94,-0.85 -0.02,-0.5 0.36,-0.92 0.86,-0.94z"/>
  <path class="fil5" d="M21.06 13.81c0.35,-0.02 0.65,0.25 0.67,0.6 0.01,0.35 -0.26,0.65 -0.61,0.67 -0.35,0.02 -0.65,-0.25 -0.66,-0.61 -0.02,-0.35 0.25,-0.65 0.6,-0.66z"/>
  <path class="fil3" d="M107.98 62.94c0.4,0.34 1.55,0.5 1.7,1.94 0.14,1.29 -0.98,1.88 -1.44,2.32 -0.45,0.43 -0.02,1.81 -1.4,2.55 -0.82,0.43 -2,0.1 -2.61,-0.61 -0.17,0.5 -0.05,0.91 -0.39,1.47 -0.52,0.84 -1.48,1.15 -2.45,0.79 -0.54,-0.2 -0.82,-0.53 -1.24,-0.71 -0.56,0.43 -2.45,-0.01 -2.95,-0.77 -0.5,-0.76 -0.43,-1.33 -0.04,-2.38 -0.53,0 -1.63,0.54 -2.61,-0.65 -0.91,-1.12 0.04,-2.27 -0.12,-2.86 -0.08,-0.35 -1.02,-1.51 -0.33,-2.71 0.52,-0.9 1.28,-1.08 2.42,-0.99 -0.1,-0.36 -1.1,-1.56 -0.11,-2.81 0.86,-1.09 2.16,-0.59 2.61,-0.88 0.32,-0.21 1.09,-1.41 2.41,-1.17 0.94,0.17 1.44,0.82 1.67,1.65 0.06,0.23 0.03,0.2 0.14,0.36 0.53,-0.71 1.31,-1.33 2.44,-1.02 0.71,0.19 1.15,0.8 1.4,1.39 0.09,0.21 0.15,0.49 0.24,0.67 0.24,0.47 1.6,0.6 1.95,1.89 0.44,1.59 -0.99,2.25 -1.29,2.53z"/>
  <path class="fil4" d="M102.69 61.52c0.25,-0.19 0.22,-0.3 0.52,-0.39l-0.14 0.59c0.52,-0.56 1.6,-1.6 2.33,-1.72 -0.26,1.09 -1.86,2.24 -2.07,2.55 0.36,-0.05 0.54,-0.2 0.98,-0.19 -0.13,0.25 -0.63,0.56 -0.86,0.64 1,0.03 2.22,-0.42 3.3,0.1 0,0 0.09,0.04 -0.17,0.19 -0.55,0.29 -1.87,0.41 -2.47,0.42l0.45 0.35 -0.78 0.02c0.79,0.55 2.06,1.09 2.51,1.81 -1.08,-0.19 -2.1,-0.79 -2.96,-1.25 0.18,0.24 0.33,0.47 0.34,0.87 -0.45,-0.19 -0.56,-0.38 -0.87,-0.61 0.29,0.74 1.12,2.11 0.95,3.2 -0.54,-0.36 -0.99,-1.34 -1.25,-1.96l-0.25 -0.61c-0.08,-0.18 0,-0.02 -0.07,-0.13l-0.13 0.82c-0.2,-0.14 -0.21,-0.45 -0.31,-0.65 -0.31,1.01 -0.38,2.03 -1.03,2.78 -0.43,-0.61 0.13,-2.21 0.27,-3.01 -0.21,0.23 -0.29,0.39 -0.56,0.51l0.21 -0.78c-0.54,0.6 -1.75,1.62 -2.52,1.77 0.21,-0.93 1.44,-1.74 1.9,-2.25l-0.66 0.12c0.2,-0.35 0.43,-0.39 0.65,-0.6 -0.97,0.07 -2.05,0.45 -3.15,0.04 0.56,-0.65 2.72,-0.67 3.26,-0.82 -0.34,-0.14 -0.66,-0.19 -0.94,-0.43 0.24,-0.21 0.59,0.03 0.93,-0.13 -0.84,-0.34 -2.25,-1.4 -2.46,-2.04 0.57,0.08 1.01,0.28 1.48,0.55 0.31,0.17 0.91,0.62 1.15,0.7 -0.11,-0.11 -0.23,-0.39 -0.25,-0.57l0.54 0.32c-0.26,-0.67 -0.98,-1.8 -0.86,-2.78 0.67,0.33 1.41,2.06 1.71,2.77 0.02,-0.29 -0.01,-0.63 0.11,-0.96 0.12,0.13 0.14,0.16 0.2,0.37l0.16 0.48c0.28,-1.14 0.45,-2.14 1.08,-2.99 0.39,0.59 -0.09,2.14 -0.27,2.9z"/>
  <path class="fil2" d="M102.49 62.16c1.78,0.93 0.36,3.59 -1.4,2.63 -1.64,-0.9 -0.36,-3.56 1.4,-2.63z"/>
  <path class="fil3" d="M123.71 62.63c0.25,0.21 0.98,0.31 1.08,1.22 0.08,0.82 -0.63,1.19 -0.91,1.47 -0.29,0.27 -0.02,1.14 -0.89,1.61 -0.52,0.27 -1.27,0.06 -1.65,-0.38 -0.11,0.31 -0.03,0.57 -0.25,0.92 -0.33,0.53 -0.93,0.73 -1.55,0.5 -0.34,-0.12 -0.52,-0.33 -0.78,-0.44 -0.35,0.27 -1.55,-0.01 -1.87,-0.49 -0.32,-0.48 -0.27,-0.84 -0.02,-1.5 -0.34,-0.01 -1.03,0.34 -1.65,-0.42 -0.58,-0.7 0.02,-1.43 -0.08,-1.81 -0.05,-0.21 -0.64,-0.95 -0.21,-1.71 0.33,-0.57 0.81,-0.68 1.54,-0.63 -0.07,-0.22 -0.7,-0.98 -0.08,-1.77 0.54,-0.69 1.37,-0.37 1.65,-0.56 0.21,-0.13 0.69,-0.89 1.53,-0.74 0.59,0.11 0.91,0.52 1.05,1.05 0.04,0.14 0.02,0.12 0.09,0.22 0.34,-0.45 0.83,-0.84 1.54,-0.64 0.45,0.12 0.73,0.5 0.89,0.88 0.06,0.13 0.09,0.3 0.15,0.42 0.15,0.3 1.01,0.38 1.24,1.2 0.27,1 -0.63,1.42 -0.82,1.6z"/>
  <path class="fil4" d="M120.37 61.73c0.15,-0.12 0.14,-0.19 0.32,-0.25l-0.08 0.37c0.33,-0.35 1.01,-1.01 1.47,-1.08 -0.17,0.68 -1.18,1.41 -1.31,1.61 0.23,-0.03 0.34,-0.13 0.62,-0.12 -0.09,0.15 -0.4,0.35 -0.55,0.4 0.64,0.02 1.41,-0.26 2.09,0.07 0,0 0.06,0.02 -0.11,0.11 -0.34,0.19 -1.18,0.26 -1.56,0.27l0.29 0.22 -0.5 0.02c0.5,0.34 1.31,0.69 1.59,1.14 -0.68,-0.12 -1.33,-0.5 -1.87,-0.79 0.11,0.15 0.21,0.3 0.21,0.55 -0.28,-0.12 -0.35,-0.24 -0.55,-0.38 0.19,0.46 0.71,1.33 0.6,2.02 -0.34,-0.23 -0.62,-0.85 -0.79,-1.24l-0.15 -0.39c-0.06,-0.11 0,-0.01 -0.05,-0.08l-0.08 0.52c-0.13,-0.09 -0.13,-0.28 -0.2,-0.41 -0.19,0.64 -0.24,1.28 -0.65,1.75 -0.27,-0.38 0.09,-1.39 0.17,-1.9 -0.13,0.15 -0.18,0.25 -0.35,0.33l0.13 -0.5c-0.34,0.38 -1.1,1.03 -1.59,1.12 0.13,-0.59 0.91,-1.1 1.2,-1.42l-0.42 0.07c0.13,-0.22 0.27,-0.24 0.42,-0.38 -0.62,0.05 -1.3,0.29 -2,0.03 0.35,-0.41 1.72,-0.43 2.06,-0.52 -0.21,-0.09 -0.41,-0.12 -0.59,-0.27 0.15,-0.13 0.37,0.02 0.58,-0.08 -0.53,-0.22 -1.41,-0.89 -1.55,-1.29 0.36,0.05 0.64,0.18 0.94,0.34 0.19,0.11 0.57,0.4 0.72,0.45 -0.06,-0.07 -0.14,-0.25 -0.15,-0.36l0.34 0.2c-0.17,-0.42 -0.62,-1.14 -0.55,-1.75 0.43,0.2 0.89,1.3 1.08,1.74 0.02,-0.18 0,-0.39 0.07,-0.6 0.08,0.08 0.09,0.1 0.13,0.23l0.1 0.3c0.18,-0.72 0.29,-1.35 0.69,-1.89 0.24,0.37 -0.06,1.36 -0.17,1.84z"/>
  <path class="fil2" d="M120.24 62.13c1.12,0.59 0.22,2.27 -0.89,1.66 -1.03,-0.56 -0.23,-2.25 0.89,-1.66z"/>
  <path class="fil3" d="M136.31 66.29c0.2,0.17 0.79,0.25 0.87,0.99 0.07,0.65 -0.51,0.95 -0.74,1.18 -0.23,0.22 -0.01,0.92 -0.72,1.3 -0.41,0.22 -1.02,0.05 -1.33,-0.31 -0.08,0.25 -0.02,0.46 -0.2,0.75 -0.26,0.42 -0.75,0.58 -1.25,0.4 -0.27,-0.1 -0.42,-0.27 -0.63,-0.36 -0.28,0.22 -1.25,0 -1.5,-0.39 -0.26,-0.39 -0.22,-0.68 -0.02,-1.22 -0.27,0 -0.84,0.28 -1.33,-0.33 -0.47,-0.57 0.01,-1.16 -0.06,-1.46 -0.05,-0.18 -0.53,-0.77 -0.18,-1.38 0.27,-0.46 0.66,-0.55 1.24,-0.51 -0.05,-0.18 -0.56,-0.79 -0.06,-1.43 0.44,-0.56 1.11,-0.3 1.33,-0.45 0.17,-0.11 0.56,-0.72 1.23,-0.6 0.48,0.09 0.74,0.42 0.86,0.85 0.03,0.11 0.01,0.1 0.07,0.18 0.27,-0.36 0.67,-0.68 1.24,-0.52 0.36,0.09 0.59,0.4 0.72,0.71 0.05,0.11 0.07,0.25 0.12,0.34 0.12,0.24 0.81,0.31 1,0.96 0.22,0.82 -0.51,1.15 -0.66,1.3z"/>
  <path class="fil4" d="M133.61 65.56c0.13,-0.1 0.11,-0.15 0.26,-0.2l-0.07 0.3c0.27,-0.28 0.82,-0.81 1.19,-0.87 -0.13,0.55 -0.95,1.14 -1.06,1.29 0.19,-0.02 0.28,-0.1 0.51,-0.09 -0.07,0.12 -0.32,0.28 -0.44,0.32 0.5,0.02 1.13,-0.21 1.68,0.06 0,0 0.05,0.02 -0.09,0.09 -0.28,0.15 -0.95,0.21 -1.26,0.22l0.23 0.18 -0.4 0.01c0.41,0.27 1.05,0.55 1.29,0.92 -0.55,-0.1 -1.08,-0.4 -1.52,-0.64 0.1,0.13 0.17,0.24 0.18,0.45 -0.23,-0.1 -0.29,-0.2 -0.45,-0.31 0.15,0.37 0.57,1.07 0.49,1.63 -0.28,-0.19 -0.51,-0.69 -0.64,-1l-0.13 -0.31c-0.04,-0.09 0,-0.02 -0.03,-0.07l-0.07 0.42c-0.1,-0.07 -0.11,-0.23 -0.16,-0.33 -0.15,0.51 -0.19,1.03 -0.52,1.41 -0.22,-0.31 0.06,-1.12 0.13,-1.53 -0.1,0.11 -0.14,0.2 -0.28,0.26l0.1 -0.4c-0.27,0.31 -0.88,0.83 -1.28,0.91 0.11,-0.48 0.73,-0.89 0.97,-1.16l-0.34 0.07c0.11,-0.18 0.22,-0.2 0.34,-0.31 -0.5,0.04 -1.05,0.23 -1.61,0.02 0.28,-0.33 1.39,-0.34 1.66,-0.42 -0.17,-0.07 -0.33,-0.1 -0.48,-0.22 0.12,-0.1 0.3,0.02 0.47,-0.06 -0.42,-0.18 -1.14,-0.72 -1.25,-1.04 0.29,0.04 0.52,0.14 0.76,0.28 0.15,0.08 0.46,0.32 0.58,0.36 -0.05,-0.06 -0.11,-0.2 -0.12,-0.3l0.27 0.17c-0.13,-0.34 -0.5,-0.92 -0.44,-1.42 0.34,0.17 0.72,1.05 0.87,1.41 0.01,-0.15 0,-0.32 0.06,-0.49 0.06,0.07 0.07,0.09 0.1,0.19l0.08 0.25c0.15,-0.59 0.23,-1.1 0.56,-1.53 0.2,0.3 -0.05,1.09 -0.14,1.48z"/>
  <path class="fil2" d="M133.51 65.89c0.9,0.47 0.18,1.83 -0.72,1.34 -0.84,-0.46 -0.18,-1.82 0.72,-1.34z"/>
  <path class="fil2" d="M141.55 66.83c-0.67,-0.16 -1.33,0.26 -1.49,0.92 -0.15,0.67 0.26,1.33 0.93,1.49 0.66,0.15 1.33,-0.26 1.48,-0.93 0.16,-0.66 -0.26,-1.33 -0.92,-1.48z"/>
  <path class="fil2" d="M147.37 69.37c-0.47,-0.11 -0.93,0.18 -1.04,0.64 -0.11,0.47 0.18,0.94 0.65,1.05 0.46,0.11 0.93,-0.18 1.04,-0.65 0.11,-0.47 -0.18,-0.93 -0.65,-1.04z"/>
  <path class="fil2" d="M152.38 71.62c-0.33,-0.08 -0.66,0.12 -0.74,0.45 -0.08,0.34 0.13,0.67 0.46,0.74 0.33,0.08 0.66,-0.13 0.74,-0.46 0.08,-0.33 -0.13,-0.66 -0.46,-0.73z"/>
  <path class="fil2" d="M28.97 17.56c0.68,-0.04 1.26,0.49 1.3,1.17 0.03,0.68 -0.5,1.26 -1.18,1.3 -0.68,0.03 -1.26,-0.5 -1.29,-1.18 -0.04,-0.68 0.49,-1.26 1.17,-1.29z"/>
  <path class="fil2" d="M24.64 15.59c0.49,-0.03 0.91,0.36 0.94,0.85 0.02,0.5 -0.36,0.92 -0.86,0.94 -0.49,0.03 -0.92,-0.35 -0.94,-0.85 -0.02,-0.5 0.36,-0.92 0.86,-0.94z"/>
  <path class="fil2" d="M21.06 13.81c0.35,-0.02 0.65,0.25 0.67,0.6 0.01,0.35 -0.26,0.65 -0.61,0.67 -0.35,0.02 -0.65,-0.25 -0.66,-0.61 -0.02,-0.35 0.25,-0.65 0.6,-0.66z"/>
 </g>
</svg>
